<?xml version="1.0" encoding="utf-8"?>
<!-- Generator: Adobe Illustrator 21.1.0, SVG Export Plug-In . SVG Version: 6.00 Build 0)  -->
<svg version="1.1" id="Capa_1" xmlns="http://www.w3.org/2000/svg" xmlns:xlink="http://www.w3.org/1999/xlink" x="0px" y="0px"
	 viewBox="0 0 512 512" style="enable-background:new 0 0 512 512;" xml:space="preserve">
<style type="text/css">
	.st0{fill:url(#SVGID_1_);}
</style>
<g>
	<g>
		<g>
			<linearGradient id="SVGID_1_" gradientUnits="userSpaceOnUse" x1="0" y1="256.0005" x2="512.0011" y2="256.0005">
				<stop  offset="1" style="stop-color:#0366FC"/>
				<stop  offset="1" style="stop-color:#0F6DFC"/>
				<stop  offset="1" style="stop-color:#2A7EFC"/>
				<stop  offset="1" style="stop-color:#408BFC"/>
				<stop  offset="1" style="stop-color:#5195FC"/>
				<stop  offset="1" style="stop-color:#5C9DFC"/>
				<stop  offset="1" style="stop-color:#63A1FC"/>
				<stop  offset="1" style="stop-color:#65A2FC"/>
			</linearGradient>
			<path class="st0" d="M256,0C114.6,0,0,114.6,0,256c0,141.4,114.6,256,256,256c141.4,0,256-114.6,256-256C512,114.6,397.4,0,256,0
				z M392.5,273.1H273.1v119.5c0,9.4-7.7,17.1-17.1,17.1c-9.4,0-17.1-7.7-17.1-17.1V273.1H119.5c-9.4,0-17.1-7.7-17.1-17.1
				c0-9.4,7.6-17.1,17.1-17.1h119.5V119.5c0-9.4,7.6-17.1,17.1-17.1c9.4,0,17.1,7.6,17.1,17.1v119.5h119.5c9.4,0,17.1,7.6,17.1,17.1
				C409.6,265.4,401.9,273.1,392.5,273.1z"/>
		</g>
	</g>
</g>
</svg>
