<?xml version="1.0" encoding="utf-8"?>
<!-- Generator: Adobe Illustrator 21.1.0, SVG Export Plug-In . SVG Version: 6.00 Build 0)  -->
<svg version="1.1" id="Layer_1" xmlns="http://www.w3.org/2000/svg" xmlns:xlink="http://www.w3.org/1999/xlink" x="0px" y="0px"
	 viewBox="0 0 345.3 90.4" style="enable-background:new 0 0 345.3 90.4;" xml:space="preserve">
<style type="text/css">
	.st0{display:none;}
	.st1{display:inline;}
	.st2{clip-path:url(#SVGID_2_);fill:#70479B;}
	.st3{clip-path:url(#SVGID_4_);fill:#19B6DF;}
	.st4{clip-path:url(#SVGID_6_);fill:#62C9DE;}
	.st5{clip-path:url(#SVGID_8_);fill:#487ABC;}
	.st6{clip-path:url(#SVGID_10_);fill:#8B2680;}
	.st7{clip-path:url(#SVGID_12_);fill:#FFFFFF;}
	.st8{clip-path:url(#SVGID_14_);fill:#FFFFFF;}
	.st9{clip-path:url(#SVGID_16_);fill:#FFFFFF;}
	.st10{clip-path:url(#SVGID_18_);fill:#FFFFFF;}
	.st11{clip-path:url(#SVGID_20_);fill:#FFFFFF;}
	.st12{clip-path:url(#SVGID_22_);fill:#FFFFFF;}
	.st13{clip-path:url(#SVGID_24_);fill:#70479B;}
	.st14{clip-path:url(#SVGID_26_);fill:#FFFFFF;}
	.st15{clip-path:url(#SVGID_28_);fill:#70479B;}
	.st16{display:inline;fill:#231F20;}
	.st17{display:inline;fill:#FFFFFF;}
	.st18{display:inline;fill:#26346F;}
	.st19{display:inline;fill:#A8C683;}
	.st20{display:inline;fill:#649ABC;}
	.st21{display:inline;fill:#F3A51D;}
	.st22{display:inline;fill:#E55625;}
	.st23{display:inline;fill:none;}
	.st24{clip-path:url(#SVGID_30_);fill:#A8C683;}
	.st25{clip-path:url(#SVGID_32_);fill:#649ABC;}
	.st26{clip-path:url(#SVGID_34_);fill:#F3A51D;}
	.st27{clip-path:url(#SVGID_36_);fill:#E55625;}
	.st28{clip-path:url(#SVGID_38_);fill:#FFFFFF;}
	.st29{clip-path:url(#SVGID_40_);fill:#FFFFFF;}
	.st30{clip-path:url(#SVGID_42_);fill:#FFFFFF;}
	.st31{clip-path:url(#SVGID_44_);fill:#FFFFFF;}
	.st32{clip-path:url(#SVGID_46_);fill:#27335D;}
	.st33{clip-path:url(#SVGID_48_);fill:#26346F;}
	.st34{clip-path:url(#SVGID_50_);fill:#26346F;}
	.st35{clip-path:url(#SVGID_52_);fill:none;stroke:#FFFFFF;stroke-width:2.855;stroke-linecap:round;stroke-miterlimit:10;}
	.st36{display:inline;fill:none;stroke:#FFFFFF;stroke-width:2.855;stroke-linecap:round;stroke-miterlimit:10;}
	.st37{fill:#231F20;}
	.st38{fill:#FFFFFF;}
	.st39{fill:url(#SVGID_53_);}
	.st40{fill:url(#SVGID_54_);}
	.st41{fill:url(#SVGID_55_);}
	.st42{fill:none;stroke:#FFFFFF;stroke-width:2.855;stroke-linecap:round;stroke-miterlimit:10;}
</style>
<g class="st0">
	<g class="st1">
		<g>
			<defs>
				<rect id="SVGID_1_" x="2.7" y="2.9" width="337.5" height="84"/>
			</defs>
			<clipPath id="SVGID_2_">
				<use xlink:href="#SVGID_1_"  style="overflow:visible;"/>
			</clipPath>
			<path class="st2" d="M131.3,39.6c0-6.6-6.6-6.6-11.5-5.5c-6.3,1.4-11.7,4.5-18.2,4.8c-6.1,0.3-12.3-0.7-18-2.7
				c-5.5-2-18.9-6-18.9,4.2c0.1,15.2-0.5,0.8,0.3,16c0.6,10.8,5.7,19.6,15.7,24.9c24.6,12.9,48.5,0,50.3-27.8
				C132,39,131.4,54,131.3,39.6"/>
		</g>
	</g>
	<g class="st1">
		<g>
			<defs>
				<rect id="SVGID_3_" x="2.7" y="2.9" width="337.5" height="84"/>
			</defs>
			<clipPath id="SVGID_4_">
				<use xlink:href="#SVGID_3_"  style="overflow:visible;"/>
			</clipPath>
			<path class="st3" d="M267.9,17.2c-1.4-2.1-3.7-3.4-7-4c-7.6-1.2-12.9,2.1-14.7,9.4c-1.8,7.1-5.6,11.4-12.1,13.4
				c0.1-1.1,0.2-2.3,0.3-3.4c0.2-2.4,0.5-4.8,0.4-7.3C234.6,20,233.2,13,223,13.4c-8.2,0.3-11.7,4-11.7,12.6v27v12.3l0.3,3.7
				c0.2,2.8,0.5,5.7,0.9,8.6c0.8,6,5.1,9.3,11.4,8.5c6.8-0.8,10.2-4.2,10.3-10.1c0-4.2,0.2-7.9,0.6-11.3c0.1-0.8,0.2-1.4,0.3-1.8
				c0.4,0.2,1,0.4,1.8,0.8c5.4,2.9,7.8,8.5,10.2,14.5c2.2,5.4,5.8,8.1,10.4,8.1c1.5,0,3.2-0.3,5-1c3.8-1.4,5.4-3.8,6.1-5.5
				c0.8-1.9,1.2-5.1-1-9.5c-3.7-7.4-7.5-13.8-11.6-19.5c-0.4-0.5-0.6-0.9-0.8-1.2c0.1-0.1,0.2-0.2,0.4-0.3
				c7.9-6.6,11.1-15.9,13.3-24.9C269.5,21.7,269.2,19.2,267.9,17.2"/>
		</g>
	</g>
	<g class="st1">
		<g>
			<defs>
				<rect id="SVGID_5_" x="2.7" y="2.9" width="337.5" height="84"/>
			</defs>
			<clipPath id="SVGID_6_">
				<use xlink:href="#SVGID_5_"  style="overflow:visible;"/>
			</clipPath>
			<path class="st4" d="M297.6,20.1c0,3.1-0.2,6.1-0.2,8.3c0,6.5,11.1,1.6,13.6-1c4.7-4.8,7.8-11.2,11-17.3c1.9-3.8,3.6-6.8,8.4-7.1
				c8.3-0.4,11.2,3,8.7,11c-3,9.9-6.6,19.5-15.2,26.2c-3.6,2.8-1.7,5.2,0.3,8.3c5.2,7.9,10,16.1,14.5,24.5c2.5,4.7,2,9.2-4,11.3
				c-5.7,2-9.7,0-12.3-5.9c-4.7-10.3-8.1-18.5-19.6-22.1c-8.1-2.6-1.9,28.2-16,28.4c-7.4,0.1-8.1-5.4-8.2-10.6
				c-0.3-16.6-0.3-33.2-0.4-49.8c0-3.3-0.1-6.6-0.1-9.8c-0.1-8.9,1.6-10.9,9.6-11.1C296.5,3.3,297.6,12.2,297.6,20.1"/>
		</g>
	</g>
	<g class="st1">
		<g>
			<defs>
				<rect id="SVGID_7_" x="2.7" y="2.9" width="337.5" height="84"/>
			</defs>
			<clipPath id="SVGID_8_">
				<use xlink:href="#SVGID_7_"  style="overflow:visible;"/>
			</clipPath>
			<path class="st5" d="M170.4,3c7.5,0.3,15.3,2.3,21.8,4.8c4,1.5,6.6,5,4.3,9.6c-6.4,13.1-24.2-1.7-34.2,5.5
				c-0.6,0.4-1.1,0.9-1.3,1.6c-0.1,0.7,0.2,1.4,0.5,2c4.9,8.5,15.1,10.9,23.8,13.7c10.3,3.3,15.3,10.9,16.4,20.7
				c1,9.2-4.6,15.6-11.9,20.8c-13.1,9.3-36.2,4.8-46.4-2.9c-4-3-3.3-6.2-1.2-9.8c2.6-4.4,5.9-6.4,11-4.3c5.2,2.1,23.3,9.3,26.9,0.5
				c3.3-8-15.8-13.8-21.2-16.1c-13.5-5.9-20-15.4-17.7-25.9C144.9,7.1,157.3,2.5,170.4,3"/>
		</g>
	</g>
	<g class="st1">
		<g>
			<defs>
				<rect id="SVGID_9_" x="2.7" y="2.9" width="337.5" height="84"/>
			</defs>
			<clipPath id="SVGID_10_">
				<use xlink:href="#SVGID_9_"  style="overflow:visible;"/>
			</clipPath>
			<path class="st6" d="M2.8,44.7c0-11,0.2-22-0.1-33c-0.1-6.3,2.1-8.6,8.7-8.3c13.3,0.5,26.7,0,40,0.3c7.6,0.1,9.6,2.7,9.2,9.9
				c-0.3,4.4-2.1,6.9-6.9,7c-8.4,0.2-16.8,0.8-25.2,0.9c-6.6,0.1-7.6,3.9-7.5,9.2c0.1,6,4.1,5.8,8.3,5.6c4-0.2,7.9-0.5,11.9-0.5
				c5.6-0.1,9.7,1.8,9.5,8.4c-0.2,6.2-4.1,7.7-9.5,7.6c-4.4-0.1-8.9,0.1-13.3,0.3c-4.9,0.2-7.1,2.6-6.9,7.6
				c0.2,5.6,0.2,11.2-0.2,16.8C20.3,84,18.3,85,9.5,85c-6.6,0-6.8-3.8-6.7-8.8C3,65.7,2.9,55.2,2.8,44.7L2.8,44.7"/>
		</g>
	</g>
	<g class="st1">
		<g>
			<defs>
				<rect id="SVGID_11_" x="2.7" y="2.9" width="337.5" height="84"/>
			</defs>
			<clipPath id="SVGID_12_">
				<use xlink:href="#SVGID_11_"  style="overflow:visible;"/>
			</clipPath>
			<path class="st7" d="M50.2,10.5h-38c-0.8,0-1.4-0.6-1.4-1.4s0.6-1.4,1.4-1.4h38c0.8,0,1.4,0.6,1.4,1.4S51,10.5,50.2,10.5"/>
		</g>
	</g>
	<g class="st1">
		<g>
			<defs>
				<rect id="SVGID_13_" x="2.7" y="2.9" width="337.5" height="84"/>
			</defs>
			<clipPath id="SVGID_14_">
				<use xlink:href="#SVGID_13_"  style="overflow:visible;"/>
			</clipPath>
			<path class="st8" d="M147.2,29.5h-0.1c-0.8-0.1-1.3-0.8-1.3-1.5c1.9-20.4,23.3-20.2,23.6-20.3c0.8,0,1.4,0.7,1.4,1.4
				c0,0.8-0.6,1.4-1.4,1.4c-0.8,0-19.1-0.1-20.7,17.7C148.6,28.9,147.9,29.5,147.2,29.5"/>
		</g>
	</g>
	<g class="st1">
		<g>
			<defs>
				<rect id="SVGID_15_" x="2.7" y="2.9" width="337.5" height="84"/>
			</defs>
			<clipPath id="SVGID_16_">
				<use xlink:href="#SVGID_15_"  style="overflow:visible;"/>
			</clipPath>
			<path class="st9" d="M219.1,45.7h-2.8V27.6c0-3.4,0.8-5.9,2.4-7.4c1.6-1.5,3.3-1.4,3.5-1.4c0.8,0.1,1.4,0.7,1.3,1.5
				c-0.1,0.8-0.7,1.4-1.5,1.3l0,0c-0.1,0-0.8,0-1.5,0.7s-1.5,2.1-1.5,5.3L219.1,45.7z"/>
		</g>
	</g>
	<g class="st1">
		<g>
			<defs>
				<rect id="SVGID_17_" x="2.7" y="2.9" width="337.5" height="84"/>
			</defs>
			<clipPath id="SVGID_18_">
				<use xlink:href="#SVGID_17_"  style="overflow:visible;"/>
			</clipPath>
			<path class="st10" d="M283.6,41C283.5,41,283.5,41,283.6,41c-0.8,0-1.4-0.7-1.4-1.5c0-0.1,0.5-14.2,0.3-22.3
				c-0.1-2.2-0.2-7.5,1.6-9.2c0.6-0.5,1.5-0.5,2,0.1s0.5,1.5-0.1,2c-0.6,0.6-0.9,3.9-0.7,7c0.3,8.2-0.3,22.4-0.3,22.5
				C284.9,40.4,284.3,41,283.6,41"/>
		</g>
	</g>
	<g class="st1">
		<g>
			<defs>
				<rect id="SVGID_19_" x="2.7" y="2.9" width="337.5" height="84"/>
			</defs>
			<clipPath id="SVGID_20_">
				<use xlink:href="#SVGID_19_"  style="overflow:visible;"/>
			</clipPath>
			<path class="st11" d="M120.8,59.9c-1.8-3.9-7-6.2-11.1-6.6c-0.2,0-0.4,0-0.7-0.1c-2-0.1-4,0-6,0.6c-2.2,0.6-3.7,1.7-5.2,3.3
				c2.8,1.7,5.5,4.6,5,9.1c-0.1,0.7-0.7,1.2-1.4,1.2c-0.1,0-0.1,0-0.2,0c-0.8-0.1-1.3-0.8-1.2-1.6c0.7-6.2-7.7-8.7-12.4-9.2
				c-3.2-0.3-6.5,0.1-8.7,2.8c-2.6,3.2-1.5,7.4,1,10.4c7.9,9.6,24.4,10.5,34.3,3.7C118.7,70.7,123.3,65.4,120.8,59.9"/>
		</g>
	</g>
	<g class="st1">
		<g>
			<defs>
				<rect id="SVGID_21_" x="2.7" y="2.9" width="337.5" height="84"/>
			</defs>
			<clipPath id="SVGID_22_">
				<use xlink:href="#SVGID_21_"  style="overflow:visible;"/>
			</clipPath>
			<path class="st12" d="M70.3,24.9c0,0,8.3-10.5,21-1.6"/>
		</g>
	</g>
	<g class="st1">
		<g>
			<defs>
				<rect id="SVGID_23_" x="2.7" y="2.9" width="337.5" height="84"/>
			</defs>
			<clipPath id="SVGID_24_">
				<use xlink:href="#SVGID_23_"  style="overflow:visible;"/>
			</clipPath>
			<path class="st13" d="M70.3,27.7c-0.6,0-1.2-0.2-1.8-0.6c-1.2-1-1.4-2.7-0.4-3.9c3.4-4.3,13.1-10.4,24.8-2.1
				c1.3,0.9,1.6,2.6,0.7,3.9s-2.6,1.6-3.9,0.7c-10.1-7.1-16.5,0.2-17.2,1C72,27.4,71.2,27.7,70.3,27.7"/>
		</g>
	</g>
	<g class="st1">
		<g>
			<defs>
				<rect id="SVGID_25_" x="2.7" y="2.9" width="337.5" height="84"/>
			</defs>
			<clipPath id="SVGID_26_">
				<use xlink:href="#SVGID_25_"  style="overflow:visible;"/>
			</clipPath>
			<path class="st14" d="M106.7,23.7c0,0,10.8-8.2,21.5,0.8"/>
		</g>
	</g>
	<g class="st1">
		<g>
			<defs>
				<rect id="SVGID_27_" x="2.7" y="2.9" width="337.5" height="84"/>
			</defs>
			<clipPath id="SVGID_28_">
				<use xlink:href="#SVGID_27_"  style="overflow:visible;"/>
			</clipPath>
			<path class="st15" d="M128.2,27.3c-0.6,0-1.3-0.2-1.8-0.7c-8.9-7.4-17.7-1-18-0.7c-1.2,0.9-3,0.7-3.9-0.6c-0.9-1.2-0.7-3,0.5-3.9
				c4.3-3.3,15.2-7.4,25,0.9c1.2,1,1.4,2.8,0.4,4C129.8,27,129,27.3,128.2,27.3"/>
		</g>
	</g>
</g>
<g class="st0">
	<path class="st16" d="M131.3,39.6c0-6.6-6.6-6.6-11.5-5.5c-6.3,1.4-11.7,4.5-18.2,4.8c-6.1,0.3-12.3-0.7-18-2.7
		c-5.5-2-18.9-6-18.9,4.2c0.1,15.2-0.5,0.8,0.3,16c0.6,10.8,5.7,19.6,15.7,24.9c24.6,12.9,48.5,0,50.3-27.8
		C132,39,131.4,54,131.3,39.6"/>
	<path class="st16" d="M267.9,17.2c-1.4-2.1-3.7-3.4-7-4c-7.6-1.2-12.9,2.1-14.7,9.4c-1.8,7.1-5.6,11.4-12.1,13.4
		c0.1-1.1,0.2-2.3,0.3-3.4c0.2-2.4,0.5-4.8,0.4-7.3C234.6,20,233.2,13,223,13.4c-8.2,0.3-11.7,4-11.7,12.6v27v12.3l0.3,3.7
		c0.2,2.8,0.5,5.7,0.9,8.6c0.8,6,5.1,9.3,11.4,8.5c6.8-0.8,10.2-4.2,10.3-10.1c0-4.2,0.2-7.9,0.6-11.3c0.1-0.8,0.2-1.4,0.3-1.8
		c0.4,0.2,1,0.4,1.8,0.8c5.4,2.9,7.8,8.5,10.2,14.5c2.2,5.4,5.8,8.1,10.4,8.1c1.5,0,3.2-0.3,5-1c3.8-1.4,5.4-3.8,6.1-5.5
		c0.8-1.9,1.2-5.1-1-9.5c-3.7-7.4-7.5-13.8-11.6-19.5c-0.4-0.5-0.6-0.9-0.8-1.2c0.1-0.1,0.2-0.2,0.4-0.3
		c7.9-6.6,11.1-15.9,13.3-24.9C269.5,21.7,269.2,19.2,267.9,17.2"/>
	<path class="st16" d="M297.6,20.1c0,3.1-0.2,6.1-0.2,8.3c0,6.5,11.1,1.6,13.6-1c4.7-4.8,7.8-11.2,11-17.3c1.9-3.8,3.6-6.8,8.4-7.1
		c8.3-0.4,11.2,3,8.7,11c-3,9.9-6.6,19.5-15.2,26.2c-3.6,2.8-1.7,5.2,0.3,8.3c5.2,7.9,10,16.1,14.5,24.5c2.5,4.7,2,9.2-4,11.3
		c-5.7,2-9.7,0-12.3-5.9c-4.7-10.3-8.1-18.5-19.6-22.1c-8.1-2.6-1.9,28.2-16,28.4c-7.4,0.1-8.1-5.4-8.2-10.6
		c-0.3-16.6-0.3-33.2-0.4-49.8c0-3.3-0.1-6.6-0.1-9.8c-0.1-8.9,1.6-10.9,9.6-11.1C296.5,3.3,297.6,12.2,297.6,20.1"/>
	<path class="st16" d="M170.4,3c7.5,0.3,15.3,2.3,21.8,4.8c4,1.5,6.6,5,4.3,9.6c-6.4,13.1-24.2-1.7-34.2,5.5
		c-0.6,0.4-1.1,0.9-1.3,1.6c-0.1,0.7,0.2,1.4,0.5,2c4.9,8.5,15.1,10.9,23.8,13.7c10.3,3.3,15.3,10.9,16.4,20.7
		c1,9.2-4.6,15.6-11.9,20.8c-13.1,9.3-36.2,4.8-46.4-2.9c-4-3-3.3-6.2-1.2-9.8c2.6-4.4,5.9-6.4,11-4.3c5.2,2.1,23.3,9.3,26.9,0.5
		c3.3-8-15.8-13.8-21.2-16.1c-13.5-5.9-20-15.4-17.7-25.9C144.9,7.1,157.3,2.5,170.4,3"/>
	<path class="st16" d="M2.8,44.7c0-11,0.2-22-0.1-33c-0.1-6.3,2.1-8.6,8.7-8.3c13.3,0.5,26.7,0,40,0.3c7.6,0.1,9.6,2.7,9.2,9.9
		c-0.3,4.4-2.1,6.9-6.9,7c-8.4,0.2-16.8,0.8-25.2,0.9c-6.6,0.1-7.6,3.9-7.5,9.2c0.1,6,4.1,5.8,8.3,5.6c4-0.2,7.9-0.5,11.9-0.5
		c5.6-0.1,9.7,1.8,9.5,8.4c-0.2,6.2-4.1,7.7-9.5,7.6c-4.4-0.1-8.9,0.1-13.3,0.3c-4.9,0.2-7.1,2.6-6.9,7.6c0.2,5.6,0.2,11.2-0.2,16.8
		C20.3,84,18.3,85,9.5,85c-6.6,0-6.8-3.8-6.7-8.8C3,65.7,2.9,55.2,2.8,44.7L2.8,44.7"/>
	<path class="st17" d="M50.2,10.5h-38c-0.8,0-1.4-0.6-1.4-1.4s0.6-1.4,1.4-1.4h38c0.8,0,1.4,0.6,1.4,1.4S51,10.5,50.2,10.5"/>
	<path class="st17" d="M147.2,29.5h-0.1c-0.8-0.1-1.3-0.8-1.3-1.5c1.9-20.4,23.3-20.2,23.6-20.3c0.8,0,1.4,0.7,1.4,1.4
		c0,0.8-0.6,1.4-1.4,1.4c-0.8,0-19.1-0.1-20.7,17.7C148.6,28.9,147.9,29.5,147.2,29.5"/>
	<path class="st17" d="M219.1,45.7h-2.8V27.6c0-3.4,0.8-5.9,2.4-7.4c1.6-1.5,3.3-1.4,3.5-1.4c0.8,0.1,1.4,0.7,1.3,1.5
		c-0.1,0.8-0.7,1.4-1.5,1.3l0,0c-0.1,0-0.8,0-1.5,0.7s-1.5,2.1-1.5,5.3L219.1,45.7z"/>
	<path class="st17" d="M283.6,41C283.5,41,283.5,41,283.6,41c-0.8,0-1.4-0.7-1.4-1.5c0-0.1,0.5-14.2,0.3-22.3
		c-0.1-2.2-0.2-7.5,1.6-9.2c0.6-0.5,1.5-0.5,2,0.1s0.5,1.5-0.1,2c-0.6,0.6-0.9,3.9-0.7,7c0.3,8.2-0.3,22.4-0.3,22.5
		C284.9,40.4,284.3,41,283.6,41"/>
	<path class="st17" d="M120.8,59.9c-1.8-3.9-7-6.2-11.1-6.6c-0.2,0-0.4,0-0.7-0.1c-2-0.1-4,0-6,0.6c-2.2,0.6-3.7,1.7-5.2,3.3
		c2.8,1.7,5.5,4.6,5,9.1c-0.1,0.7-0.7,1.2-1.4,1.2c-0.1,0-0.1,0-0.2,0c-0.8-0.1-1.3-0.8-1.2-1.6c0.7-6.2-7.7-8.7-12.4-9.2
		c-3.2-0.3-6.5,0.1-8.7,2.8c-2.6,3.2-1.5,7.4,1,10.4c7.9,9.6,24.4,10.5,34.3,3.7C118.7,70.7,123.3,65.4,120.8,59.9"/>
	<path class="st17" d="M70.3,24.9c0,0,8.3-10.5,21-1.6"/>
	<path class="st16" d="M70.3,27.7c-0.6,0-1.2-0.2-1.8-0.6c-1.2-1-1.4-2.7-0.4-3.9c3.4-4.3,13.1-10.4,24.8-2.1
		c1.3,0.9,1.6,2.6,0.7,3.9s-2.6,1.6-3.9,0.7c-10.1-7.1-16.5,0.2-17.2,1C72,27.4,71.2,27.7,70.3,27.7"/>
	<path class="st17" d="M106.7,23.7c0,0,10.8-8.2,21.5,0.8"/>
	<path class="st16" d="M128.2,27.3c-0.6,0-1.3-0.2-1.8-0.7c-8.9-7.4-17.7-1-18-0.7c-1.2,0.9-3,0.7-3.9-0.6c-0.9-1.2-0.7-3,0.5-3.9
		c4.3-3.3,15.2-7.4,25,0.9c1.2,1,1.4,2.8,0.4,4C129.8,27,129,27.3,128.2,27.3"/>
</g>
<g class="st0">
	<path class="st18" d="M131.2,39.6c0-6.6-6.6-6.6-11.5-5.5c-6.3,1.4-11.7,4.5-18.2,4.8c-6.1,0.3-12.3-0.7-18-2.7
		c-5.5-2-18.9-6-18.9,4.2c0.1,15.2-0.5,0.8,0.3,16c0.6,10.8,5.7,19.6,15.7,24.9c24.6,12.9,48.5,0,50.3-27.8
		C131.9,39,131.3,54,131.2,39.6"/>
	<path class="st19" d="M267.8,17.2c-1.4-2.1-3.7-3.4-7-4c-7.6-1.2-12.9,2.1-14.7,9.4C244.3,29.8,240.5,34,234,36
		c0.1-1.1,0.2-2.3,0.3-3.4c0.2-2.4,0.5-4.8,0.4-7.3c-0.2-5.3-1.6-12.3-11.8-11.9c-8.2,0.3-11.7,4-11.7,12.6v27v12.3l0.3,3.7
		c0.2,2.8,0.5,5.7,0.9,8.6c0.8,6,5.1,9.3,11.4,8.5C230.5,85.4,234,82,234,76c0-4.2,0.2-7.9,0.6-11.3c0.1-0.8,0.2-1.4,0.3-1.8
		c0.4,0.2,1,0.4,1.8,0.8c5.4,2.9,7.8,8.5,10.2,14.5c2.2,5.4,5.8,8.1,10.4,8.1c1.5,0,3.2-0.3,5-1c3.8-1.4,5.4-3.8,6.1-5.5
		c0.8-1.9,1.2-5.1-1-9.5c-3.7-7.4-7.5-13.8-11.6-19.5c-0.4-0.5-0.6-0.9-0.8-1.2c0.1-0.1,0.2-0.2,0.4-0.3
		c7.9-6.6,11.1-15.9,13.3-24.9C269.4,21.7,269.1,19.2,267.8,17.2"/>
	<path class="st20" d="M297.5,20.1c0,3.1-0.2,6.1-0.2,8.3c0,6.5,11.1,1.6,13.6-1c4.7-4.8,7.8-11.2,11-17.3c1.9-3.8,3.6-6.8,8.4-7.1
		c8.3-0.4,11.2,3,8.7,11c-3,9.9-6.6,19.5-15.2,26.2c-3.6,2.8-1.7,5.2,0.3,8.3c5.2,7.9,10,16.1,14.5,24.5c2.5,4.7,2,9.2-4,11.3
		c-5.7,2-9.7,0-12.3-5.9c-4.7-10.3-8.1-18.5-19.6-22.1c-8.1-2.6-1.9,28.2-16,28.4c-7.4,0.1-8.1-5.4-8.2-10.6
		c-0.3-16.6-0.3-33.2-0.4-49.8c0-3.3-0.1-6.6-0.1-9.8c-0.1-8.9,1.6-10.9,9.6-11.1C296.4,3.3,297.5,12.2,297.5,20.1"/>
	<path class="st21" d="M170.3,3c7.5,0.3,15.3,2.3,21.8,4.8c4,1.5,6.6,5,4.3,9.6c-6.4,13.1-24.2-1.7-34.2,5.5
		c-0.6,0.4-1.1,0.9-1.3,1.6c-0.1,0.7,0.2,1.4,0.5,2c4.9,8.5,15.1,10.9,23.8,13.7c10.3,3.3,15.3,10.9,16.4,20.7
		c1,9.2-4.6,15.6-11.9,20.8c-13.1,9.3-36.2,4.8-46.4-2.9c-4-3-3.3-6.2-1.2-9.8c2.6-4.4,5.9-6.4,11-4.3c5.2,2.1,23.3,9.3,26.9,0.5
		c3.3-8-15.8-13.8-21.2-16.1c-13.5-5.9-20-15.4-17.7-25.9C144.8,7.1,157.2,2.5,170.3,3"/>
	<path class="st22" d="M2.7,44.7c0-11,0.2-22-0.1-33c-0.1-6.3,2.1-8.6,8.7-8.3c13.3,0.5,26.7,0,40,0.3c7.6,0.1,9.6,2.7,9.2,9.9
		c-0.3,4.4-2.1,6.9-6.9,7c-8.4,0.2-16.8,0.8-25.2,0.9c-6.6,0.1-7.6,3.9-7.5,9.2c0.1,6,4.1,5.8,8.3,5.6c4-0.2,7.9-0.5,11.9-0.5
		c5.6-0.1,9.7,1.8,9.5,8.4c-0.2,6.2-4.1,7.7-9.5,7.6c-4.4-0.1-8.9,0.1-13.3,0.3c-4.9,0.2-7.1,2.6-6.9,7.6c0.2,5.6,0.2,11.2-0.2,16.8
		C20.2,84,18.2,85,9.4,85c-6.6,0-6.8-3.8-6.7-8.8C2.9,65.7,2.8,55.2,2.7,44.7L2.7,44.7"/>
	<path class="st17" d="M50.1,10.5h-38c-0.8,0-1.4-0.6-1.4-1.4s0.6-1.4,1.4-1.4h38c0.8,0,1.4,0.6,1.4,1.4S50.9,10.5,50.1,10.5"/>
	<path class="st17" d="M147.1,29.5H147c-0.8-0.1-1.3-0.8-1.3-1.5C147.6,7.6,169,7.7,169.3,7.7c0.8,0,1.4,0.7,1.4,1.4
		c0,0.8-0.6,1.4-1.4,1.4c-0.8,0-19.1-0.1-20.7,17.7C148.5,28.9,147.8,29.5,147.1,29.5"/>
	<path class="st17" d="M219,45.7h-2.8V27.6c0-3.4,0.8-5.9,2.4-7.4c1.6-1.5,3.3-1.4,3.5-1.4c0.8,0.1,1.4,0.7,1.3,1.5
		c-0.1,0.8-0.7,1.4-1.5,1.3l0,0c-0.1,0-0.8,0-1.5,0.7s-1.5,2.1-1.5,5.3L219,45.7z"/>
	<path class="st17" d="M283.5,41C283.4,41,283.4,41,283.5,41c-0.8,0-1.4-0.7-1.4-1.5c0-0.1,0.5-14.2,0.3-22.3
		c-0.1-2.2-0.2-7.5,1.6-9.2c0.6-0.5,1.5-0.5,2,0.1s0.5,1.5-0.1,2c-0.6,0.6-0.9,3.9-0.7,7c0.3,8.2-0.3,22.4-0.3,22.5
		C284.8,40.4,284.2,41,283.5,41"/>
	<path class="st17" d="M120.7,59.9c-1.8-3.9-7-6.2-11.1-6.6c-0.2,0-0.4,0-0.7-0.1c-2-0.1-4,0-6,0.6c-2.2,0.6-3.7,1.7-5.2,3.3
		c2.8,1.7,5.5,4.6,5,9.1c-0.1,0.7-0.7,1.2-1.4,1.2c-0.1,0-0.1,0-0.2,0c-0.8-0.1-1.3-0.8-1.2-1.6c0.7-6.2-7.7-8.7-12.4-9.2
		c-3.2-0.3-6.5,0.1-8.7,2.8c-2.6,3.2-1.5,7.4,1,10.4c7.9,9.6,24.4,10.5,34.3,3.7C118.6,70.7,123.2,65.4,120.7,59.9"/>
	<path class="st17" d="M70.2,24.9c0,0,8.3-10.5,21-1.6"/>
	<path class="st18" d="M70.2,27.7c-0.6,0-1.2-0.2-1.8-0.6c-1.2-1-1.4-2.7-0.4-3.9c3.4-4.3,13.1-10.4,24.8-2.1
		c1.3,0.9,1.6,2.6,0.7,3.9s-2.6,1.6-3.9,0.7c-10.1-7.1-16.5,0.2-17.2,1C71.9,27.4,71.1,27.7,70.2,27.7"/>
	<path class="st17" d="M106.6,23.7c0,0,10.8-8.2,21.5,0.8"/>
	<path class="st18" d="M128.1,27.3c-0.6,0-1.3-0.2-1.8-0.7c-8.9-7.4-17.7-1-18-0.7c-1.2,0.9-3,0.7-3.9-0.6c-0.9-1.2-0.7-3,0.5-3.9
		c4.3-3.3,15.2-7.4,25,0.9c1.2,1,1.4,2.8,0.4,4C129.7,27,128.9,27.3,128.1,27.3"/>
	<rect x="2.6" y="2.9" class="st23" width="337.5" height="84"/>
</g>
<g class="st0">
	<g class="st1">
		<g>
			<defs>
				<rect id="SVGID_29_" x="1.1" y="3" width="342.8" height="85.4"/>
			</defs>
			<clipPath id="SVGID_30_">
				<use xlink:href="#SVGID_29_"  style="overflow:visible;"/>
			</clipPath>
			<path class="st24" d="M270.4,17.5c-1.4-2.1-3.8-3.5-7.1-4c-7.8-1.2-13.1,2.1-14.9,9.6c-1.8,7.2-5.7,11.5-12.3,13.6
				c0.1-1.2,0.2-2.3,0.3-3.5c0.2-2.4,0.5-4.9,0.4-7.4c-0.2-5.4-1.6-12.5-12-12.1c-8.3,0.3-11.9,4.1-11.9,12.8v27.4v12.5l0.3,3.7
				c0.2,2.8,0.5,5.8,0.9,8.8c0.8,6.1,5.2,9.4,11.6,8.7c6.9-0.8,10.4-4.3,10.5-10.3c0-4.2,0.2-8,0.6-11.4c0.1-0.8,0.2-1.4,0.3-1.8
				c0.4,0.2,1,0.4,1.8,0.8c5.5,2.9,7.9,8.7,10.4,14.8c2.2,5.4,5.9,8.3,10.6,8.3c1.6,0,3.3-0.3,5-1c3.8-1.4,5.5-3.8,6.2-5.6
				c0.8-1.9,1.2-5.2-1-9.7c-3.8-7.5-7.6-14-11.8-19.8c-0.4-0.6-0.6-0.9-0.8-1.2c0.1-0.1,0.2-0.2,0.4-0.4c8-6.7,11.3-16.2,13.5-25.3
				C272.1,22,271.7,19.5,270.4,17.5"/>
		</g>
	</g>
	<g class="st1">
		<g>
			<defs>
				<rect id="SVGID_31_" x="1.1" y="3" width="342.8" height="85.4"/>
			</defs>
			<clipPath id="SVGID_32_">
				<use xlink:href="#SVGID_31_"  style="overflow:visible;"/>
			</clipPath>
			<path class="st25" d="M300.6,20.4c0,3.2-0.2,6.2-0.2,8.4c0,6.6,11.2,1.6,13.8-1c4.8-4.8,8-11.4,11.1-17.6c2-3.8,3.6-6.9,8.6-7.2
				c8.5-0.4,11.3,3,8.9,11.2c-3,10.1-6.7,19.8-15.4,26.6c-3.6,2.9-1.8,5.3,0.3,8.4c5.3,8,10.2,16.4,14.7,24.9
				c2.5,4.7,2,9.3-4.1,11.5c-5.8,2-9.8,0-12.5-6c-4.7-10.4-8.3-18.8-19.9-22.5c-8.3-2.6-1.9,28.7-16.3,28.9
				c-7.5,0.1-8.2-5.5-8.4-10.7c-0.3-16.9-0.3-33.7-0.4-50.6c0-3.3-0.1-6.7-0.1-10c-0.1-9,1.7-11.1,9.7-11.3
				C299.4,3.3,300.6,12.4,300.6,20.4"/>
		</g>
	</g>
	<g class="st1">
		<g>
			<defs>
				<rect id="SVGID_33_" x="1.1" y="3" width="342.8" height="85.4"/>
			</defs>
			<clipPath id="SVGID_34_">
				<use xlink:href="#SVGID_33_"  style="overflow:visible;"/>
			</clipPath>
			<path class="st26" d="M171.4,3c7.7,0.3,15.6,2.3,22.2,4.8c4.1,1.6,6.7,5,4.4,9.7c-6.5,13.3-24.6-1.7-34.7,5.6
				c-0.6,0.4-1.1,0.9-1.3,1.6c-0.1,0.7,0.2,1.4,0.5,2c4.9,8.6,15.3,11.1,24.2,13.9c10.4,3.3,15.6,11,16.6,21
				c1,9.3-4.6,15.9-12.1,21.2c-13.3,9.5-36.8,4.9-47.1-2.9c-4-3-3.3-6.3-1.2-10c2.6-4.5,6-6.5,11.2-4.4s23.6,9.4,27.3,0.5
				c3.4-8.1-16.1-14-21.5-16.4c-13.7-6-20.3-15.7-18-26.3C145.5,7.2,158.1,2.5,171.4,3"/>
		</g>
	</g>
	<g class="st1">
		<g>
			<defs>
				<rect id="SVGID_35_" x="1.1" y="3" width="342.8" height="85.4"/>
			</defs>
			<clipPath id="SVGID_36_">
				<use xlink:href="#SVGID_35_"  style="overflow:visible;"/>
			</clipPath>
			<path class="st27" d="M1.2,45.4c0-11.2,0.2-22.3-0.1-33.5C0.9,5.5,3.2,3.2,9.9,3.5C23.4,4,37,3.5,50.5,3.7
				c7.7,0.1,9.8,2.8,9.3,10c-0.3,4.5-2.2,7-7,7.1c-8.5,0.2-17.1,0.9-25.6,0.9c-6.7,0.1-7.7,3.9-7.6,9.4c0.1,6.1,4.2,5.9,8.4,5.7
				c4-0.2,8.1-0.5,12.1-0.5c5.7-0.1,9.8,1.8,9.6,8.5c-0.2,6.3-4.2,7.8-9.6,7.7c-4.5-0.1-9,0.1-13.5,0.3c-4.9,0.2-7.2,2.6-7,7.7
				c0.2,5.7,0.2,11.4-0.2,17.1C19,85.3,17,86.4,8,86.3c-6.7,0-6.9-3.9-6.8-8.9C1.4,66.8,1.2,56.1,1.2,45.4L1.2,45.4"/>
		</g>
	</g>
	<g class="st1">
		<g>
			<defs>
				<rect id="SVGID_37_" x="1.1" y="3" width="342.8" height="85.4"/>
			</defs>
			<clipPath id="SVGID_38_">
				<use xlink:href="#SVGID_37_"  style="overflow:visible;"/>
			</clipPath>
			<path class="st28" d="M49.3,10.7H10.8c-0.8,0-1.4-0.6-1.4-1.4s0.6-1.4,1.4-1.4h38.5c0.8,0,1.4,0.6,1.4,1.4
				C50.8,10,50.1,10.7,49.3,10.7"/>
		</g>
	</g>
	<g class="st1">
		<g>
			<defs>
				<rect id="SVGID_39_" x="1.1" y="3" width="342.8" height="85.4"/>
			</defs>
			<clipPath id="SVGID_40_">
				<use xlink:href="#SVGID_39_"  style="overflow:visible;"/>
			</clipPath>
			<path class="st29" d="M147.8,29.9h-0.1c-0.8-0.1-1.4-0.8-1.3-1.6c1.9-20.7,23.7-20.5,23.9-20.6c0.8,0,1.4,0.7,1.4,1.4
				c0,0.8-0.6,1.4-1.4,1.4c-0.8,0-19.4-0.1-21,18C149.2,29.4,148.6,29.9,147.8,29.9"/>
		</g>
	</g>
	<g class="st1">
		<g>
			<defs>
				<rect id="SVGID_41_" x="1.1" y="3" width="342.8" height="85.4"/>
			</defs>
			<clipPath id="SVGID_42_">
				<use xlink:href="#SVGID_41_"  style="overflow:visible;"/>
			</clipPath>
			<path class="st30" d="M220.9,46.4H218V28.1c0-3.5,0.8-6,2.5-7.5c1.6-1.5,3.4-1.4,3.6-1.4c0.8,0.1,1.4,0.7,1.3,1.5
				c-0.1,0.8-0.7,1.4-1.5,1.3l0,0c-0.1,0-0.8,0-1.5,0.7s-1.5,2.2-1.5,5.4L220.9,46.4z"/>
		</g>
	</g>
	<g class="st1">
		<g>
			<defs>
				<rect id="SVGID_43_" x="1.1" y="3" width="342.8" height="85.4"/>
			</defs>
			<clipPath id="SVGID_44_">
				<use xlink:href="#SVGID_43_"  style="overflow:visible;"/>
			</clipPath>
			<path class="st31" d="M286.3,41.6L286.3,41.6c-0.8,0-1.5-0.7-1.4-1.5c0-0.1,0.5-14.4,0.3-22.6c-0.1-2.2-0.3-7.6,1.7-9.3
				c0.6-0.5,1.5-0.5,2,0.1s0.5,1.5-0.1,2c-0.6,0.6-0.9,3.9-0.7,7.1c0.3,8.4-0.3,22.7-0.3,22.8C287.7,41,287.1,41.6,286.3,41.6"/>
		</g>
	</g>
	<g class="st1">
		<g>
			<defs>
				<rect id="SVGID_45_" x="1.1" y="3" width="342.8" height="85.4"/>
			</defs>
			<clipPath id="SVGID_46_">
				<use xlink:href="#SVGID_45_"  style="overflow:visible;"/>
			</clipPath>
			<path class="st32" d="M82.3,37.1c0.1,1.5,0.1,3.1-0.8,4.4c-0.9,1.4-2.3,2.3-3.8,2.8c-3.7,1.3-8.1,1.3-11.4-1.1
				c-3.7-2.7-2.8-7.5-2.8-11.5c0-6.5,5.1-6.7,9.5-6.9c3.8-0.2,6.7,1.6,8,5.2c0.6,1.6,0.9,3.4,1,5.1C82.2,35.8,82.3,36.4,82.3,37.1"
				/>
		</g>
	</g>
	<g class="st1">
		<g>
			<defs>
				<rect id="SVGID_47_" x="1.1" y="3" width="342.8" height="85.4"/>
			</defs>
			<clipPath id="SVGID_48_">
				<use xlink:href="#SVGID_47_"  style="overflow:visible;"/>
			</clipPath>
			<path class="st33" d="M130.9,40.7c-0.1,0.3-0.2,0.5-0.4,0.7c-3,5.2-11.8,4.5-16,1.4c-2.7-2-2.1-5.6-2-8.6
				c0.1-3.1,0.6-6.4,3.1-8.5c1.9-1.6,4.7-1.4,7-1.2c2.5,0.3,5.6,0.5,7.3,2.5c1,1.2,1.2,2.8,1.2,4.3c0,1.4,0,2.9,0.1,4.3
				C131.3,37.4,131.6,39.1,130.9,40.7"/>
		</g>
	</g>
	<g class="st1">
		<g>
			<defs>
				<rect id="SVGID_49_" x="1.1" y="3" width="342.8" height="85.4"/>
			</defs>
			<clipPath id="SVGID_50_">
				<use xlink:href="#SVGID_49_"  style="overflow:visible;"/>
			</clipPath>
			<path class="st34" d="M130.8,55.3c0.2,0.5,0.3,1.1,0.3,1.6c0,2.3-1,4.8-1.7,7.1s-1.5,4.5-2.5,6.7c-2,4.3-4.6,8.4-8.5,11.2
				c-8.6,6.5-19.9,7.9-30.1,5C81.7,85,75.7,81.3,71.4,76c-4.5-5.5-6.4-11.9-7.3-18.8c0-0.4-0.1-0.7-0.1-1.1c-0.1-1.2,0-2.4,0.7-3.4
				c0.6-0.7,1.4-1.2,2.3-1.5c3.4-1.1,6.8-1.8,10.3-0.5c3.1,1.1,4.3,3.3,4.7,6.4c1.1,7.8,8,14.8,16.2,14c3.9-0.4,7.5-2.2,10.1-5.1
				s3.9-6.6,4.5-10.4c0.5-3.4,3.4-4.7,6.6-5.3c2.1-0.4,4.5-0.5,6.5,0.3C127.9,51.5,130.1,53.1,130.8,55.3"/>
		</g>
	</g>
	<g class="st1">
		<g>
			<defs>
				<rect id="SVGID_51_" x="1.1" y="3" width="342.8" height="85.4"/>
			</defs>
			<clipPath id="SVGID_52_">
				<use xlink:href="#SVGID_51_"  style="overflow:visible;"/>
			</clipPath>
			<path class="st35" d="M119.4,29.7c0,0,5.3-2,7.8,2.4 M69.1,29.7c0,0,5.3-2,7.8,2.4"/>
		</g>
	</g>
</g>
<g class="st0">
	<path class="st16" d="M270.6,17.5c-1.4-2.1-3.8-3.5-7.1-4c-7.8-1.2-13.1,2.1-14.9,9.6c-1.8,7.2-5.7,11.5-12.3,13.6
		c0.1-1.2,0.2-2.3,0.3-3.5c0.2-2.4,0.5-4.9,0.4-7.4c-0.2-5.4-1.6-12.5-12-12.1c-8.3,0.3-11.9,4.1-11.9,12.8v27.4v12.5l0.3,3.7
		c0.2,2.8,0.5,5.8,0.9,8.8c0.8,6.1,5.2,9.4,11.6,8.7c6.9-0.8,10.4-4.3,10.5-10.3c0-4.2,0.2-8,0.6-11.4c0.1-0.8,0.2-1.4,0.3-1.8
		c0.4,0.2,1,0.4,1.8,0.8c5.5,2.9,7.9,8.7,10.4,14.8c2.2,5.4,5.9,8.3,10.6,8.3c1.6,0,3.3-0.3,5-1c3.8-1.4,5.5-3.8,6.2-5.6
		c0.8-1.9,1.2-5.2-1-9.7c-3.8-7.5-7.6-14-11.8-19.8c-0.4-0.6-0.6-0.9-0.8-1.2c0.1-0.1,0.2-0.2,0.4-0.4c8-6.7,11.3-16.2,13.5-25.3
		C272.3,22,271.9,19.5,270.6,17.5"/>
	<path class="st16" d="M300.8,20.4c0,3.2-0.2,6.2-0.2,8.4c0,6.6,11.2,1.6,13.8-1c4.8-4.8,8-11.4,11.1-17.6c2-3.8,3.6-6.9,8.6-7.2
		c8.5-0.4,11.3,3,8.9,11.2c-3,10.1-6.7,19.8-15.4,26.6c-3.6,2.9-1.8,5.3,0.3,8.4c5.3,8,10.2,16.4,14.7,24.9c2.5,4.7,2,9.3-4.1,11.5
		c-5.8,2-9.8,0-12.5-6c-4.7-10.4-8.3-18.8-19.9-22.5c-8.3-2.6-1.9,28.7-16.3,28.9c-7.5,0.1-8.2-5.5-8.4-10.7
		c-0.3-16.9-0.3-33.7-0.4-50.6c0-3.3-0.1-6.7-0.1-10c-0.1-9,1.7-11.1,9.7-11.3C299.6,3.3,300.8,12.4,300.8,20.4"/>
	<path class="st16" d="M171.6,3c7.7,0.3,15.6,2.3,22.2,4.8c4.1,1.6,6.7,5,4.4,9.7c-6.5,13.3-24.6-1.7-34.7,5.6
		c-0.6,0.4-1.1,0.9-1.3,1.6c-0.1,0.7,0.2,1.4,0.5,2c4.9,8.6,15.3,11.1,24.2,13.9c10.4,3.3,15.6,11,16.6,21c1,9.3-4.6,15.9-12.1,21.2
		c-13.3,9.5-36.8,4.9-47.1-2.9c-4-3-3.3-6.3-1.2-10c2.6-4.5,6-6.5,11.2-4.4s23.6,9.4,27.3,0.5c3.4-8.1-16.1-14-21.5-16.4
		c-13.7-6-20.3-15.7-18-26.3C145.7,7.2,158.3,2.5,171.6,3"/>
	<path class="st16" d="M1.4,45.4c0-11.2,0.2-22.3-0.1-33.5c-0.1-6.4,2.1-8.7,8.8-8.5c13.5,0.5,27.1,0,40.6,0.3
		c7.7,0.1,9.8,2.8,9.3,10c-0.3,4.5-2.2,7-7,7.1c-8.5,0.2-17.1,0.9-25.6,0.9c-6.7,0.1-7.7,3.9-7.6,9.4c0.1,6.1,4.2,5.9,8.4,5.7
		c4-0.2,8.1-0.5,12.1-0.5c5.7-0.1,9.8,1.8,9.6,8.5c-0.2,6.3-4.2,7.8-9.6,7.7c-4.5-0.1-9,0.1-13.5,0.3c-4.9,0.2-7.2,2.6-7,7.7
		c0.2,5.7,0.2,11.4-0.2,17.1c-0.5,7.6-2.5,8.6-11.5,8.6c-6.7,0-6.9-3.9-6.8-8.9C1.6,66.8,1.4,56.1,1.4,45.4L1.4,45.4"/>
	<path class="st17" d="M49.5,10.7H11c-0.8,0-1.4-0.6-1.4-1.4c0-0.8,0.6-1.4,1.4-1.4h38.5c0.8,0,1.4,0.6,1.4,1.4
		C51,10,50.3,10.7,49.5,10.7"/>
	<path class="st17" d="M148,29.9h-0.1c-0.8-0.1-1.4-0.8-1.3-1.6c1.9-20.7,23.7-20.5,23.9-20.6c0.8,0,1.4,0.7,1.4,1.4
		c0,0.8-0.6,1.4-1.4,1.4c-0.8,0-19.4-0.1-21,18C149.4,29.4,148.8,29.9,148,29.9"/>
	<path class="st17" d="M221.1,46.4h-2.9V28.1c0-3.5,0.8-6,2.5-7.5c1.6-1.5,3.4-1.4,3.6-1.4c0.8,0.1,1.4,0.7,1.3,1.5
		c-0.1,0.8-0.7,1.4-1.5,1.3l0,0c-0.1,0-0.8,0-1.5,0.7s-1.5,2.2-1.5,5.4L221.1,46.4z"/>
	<path class="st17" d="M286.5,41.6L286.5,41.6c-0.8,0-1.5-0.7-1.4-1.5c0-0.1,0.5-14.4,0.3-22.6c-0.1-2.2-0.3-7.6,1.7-9.3
		c0.6-0.5,1.5-0.5,2,0.1s0.5,1.5-0.1,2c-0.6,0.6-0.9,3.9-0.7,7.1c0.3,8.4-0.3,22.7-0.3,22.8C287.9,41,287.3,41.6,286.5,41.6"/>
	<path class="st16" d="M82.5,37.1c0.1,1.5,0.1,3.1-0.8,4.4c-0.9,1.4-2.3,2.3-3.8,2.8c-3.7,1.3-8.1,1.3-11.4-1.1
		c-3.7-2.7-2.8-7.5-2.8-11.5c0-6.5,5.1-6.7,9.5-6.9c3.8-0.2,6.7,1.6,8,5.2c0.6,1.6,0.9,3.4,1,5.1C82.4,35.8,82.5,36.4,82.5,37.1"/>
	<path class="st16" d="M131.2,40.7c-0.1,0.3-0.2,0.5-0.4,0.7c-3,5.2-11.8,4.5-16,1.4c-2.7-2-2.1-5.6-2-8.6c0.1-3.1,0.6-6.4,3.1-8.5
		c1.9-1.6,4.7-1.4,7-1.2c2.5,0.3,5.6,0.5,7.3,2.5c1,1.2,1.2,2.8,1.2,4.3c0,1.4,0,2.9,0.1,4.3C131.5,37.4,131.8,39.1,131.2,40.7"/>
	<path class="st16" d="M131,55.3c0.2,0.5,0.3,1.1,0.3,1.6c0,2.3-1,4.8-1.7,7.1s-1.5,4.5-2.5,6.7c-2,4.3-4.6,8.4-8.5,11.2
		c-8.6,6.5-19.9,7.9-30.1,5C81.9,85,75.9,81.3,71.6,76c-4.5-5.5-6.4-11.9-7.3-18.8c0-0.4-0.1-0.7-0.1-1.1c-0.1-1.2,0-2.4,0.7-3.4
		c0.6-0.7,1.4-1.2,2.3-1.5c3.4-1.1,6.8-1.8,10.3-0.5c3.1,1.1,4.3,3.3,4.7,6.4c1.1,7.8,8,14.8,16.2,14c3.9-0.4,7.5-2.2,10.1-5.1
		s3.9-6.6,4.5-10.4c0.5-3.4,3.4-4.7,6.6-5.3c2.1-0.4,4.5-0.5,6.5,0.3C128.1,51.5,130.3,53.1,131,55.3"/>
	<path class="st36" d="M119.6,29.7c0,0,5.3-2,7.8,2.4 M69.3,29.7c0,0,5.3-2,7.8,2.4"/>
</g>
<g>
	<g>
		<path class="st37" d="M1.4,46.8c0-11.2,0.2-22.3-0.1-33.5c-0.1-6.4,2.1-8.7,8.8-8.5c13.5,0.5,27.1,0,40.6,0.3
			c7.7,0.1,9.8,2.8,9.3,10c-0.3,4.5-2.2,7-7,7.1c-8.5,0.3-17,0.9-25.6,1c-6.7,0.1-7.7,3.9-7.6,9.4c0.1,6.1,4.2,5.9,8.4,5.7
			c4-0.2,8.1-0.5,12.1-0.5c5.7-0.1,9.8,1.8,9.6,8.5c-0.2,6.3-4.2,7.8-9.6,7.7c-4.5-0.1-9,0.1-13.5,0.3c-4.9,0.2-7.2,2.6-7,7.7
			c0.2,5.7,0.2,11.4-0.2,17.1c-0.5,7.6-2.5,8.6-11.5,8.6c-6.7,0-6.9-3.9-6.8-8.9C1.6,68.2,1.4,57.5,1.4,46.8L1.4,46.8"/>
		<path class="st38" d="M49.5,12.1H11c-0.8,0-1.4-0.6-1.4-1.4c0-0.8,0.6-1.4,1.4-1.4h38.5c0.8,0,1.4,0.6,1.4,1.4
			C51,11.5,50.3,12.1,49.5,12.1"/>
	</g>
	<g>
		<path class="st37" d="M171.6,4.7c7.7,0.3,15.6,2.3,22.2,4.8c4.1,1.6,6.7,5,4.4,9.7c-6.5,13.3-24.6-1.7-34.7,5.6
			c-0.6,0.4-1.1,0.9-1.3,1.6c-0.1,0.7,0.2,1.4,0.5,2c4.9,8.6,15.3,11.1,24.2,13.9c10.4,3.3,15.6,11,16.6,21
			c1,9.3-4.6,15.9-12.1,21.2c-13.3,9.5-36.8,4.9-47.1-2.9c-4-3-3.3-6.3-1.2-10c2.6-4.5,6-6.5,11.2-4.4s23.6,9.4,27.3,0.5
			c3.4-8.1-16.1-14-21.5-16.4c-13.7-6-20.3-15.7-18-26.3C145.7,8.8,158.3,4.1,171.6,4.7"/>
		<path class="st38" d="M148,31.6h-0.1c-0.8-0.1-1.4-0.8-1.3-1.6c1.9-20.7,23.7-20.5,23.9-20.6c0.8,0,1.4,0.7,1.4,1.4
			c0,0.8-0.6,1.4-1.4,1.4c-0.8,0-19.4-0.1-21,18C149.4,31,148.8,31.6,148,31.6"/>
	</g>
	<g>
		<path class="st37" d="M270.6,19.1c-1.4-2.1-3.8-3.5-7.1-4c-7.8-1.2-13.1,2.1-14.9,9.6c-1.8,7.2-5.7,11.5-12.3,13.6
			c0.1-1.2,0.2-2.3,0.3-3.5c0.2-2.4,0.5-4.9,0.4-7.4c-0.2-5.4-1.6-12.5-12-12.1c-8.3,0.3-11.9,4.1-11.9,12.8v27.4V68l0.3,3.7
			c0.2,2.8,0.5,5.8,0.9,8.8c0.8,6.1,5.2,9.4,11.6,8.7c6.9-0.8,10.4-4.3,10.5-10.3c0-4.2,0.2-8,0.6-11.4c0.1-0.8,0.2-1.4,0.3-1.8
			c0.4,0.2,1,0.4,1.8,0.8c5.5,2.9,7.9,8.7,10.4,14.8c2.2,5.4,5.9,8.3,10.6,8.3c1.6,0,3.3-0.3,5-1c3.8-1.4,5.5-3.8,6.2-5.6
			c0.8-1.9,1.2-5.2-1-9.7c-3.8-7.5-7.6-14-11.8-19.8c-0.4-0.6-0.6-0.9-0.8-1.2c0.1-0.1,0.2-0.2,0.4-0.4c8-6.7,11.3-16.2,13.5-25.3
			C272.3,23.6,271.9,21.1,270.6,19.1"/>
		<path class="st38" d="M221.1,48h-2.9V29.7c0-3.5,0.8-6,2.5-7.5c1.6-1.5,3.4-1.4,3.6-1.4c0.8,0.1,1.4,0.7,1.3,1.5
			c-0.1,0.8-0.7,1.4-1.5,1.3l0,0c-0.1,0-0.8,0-1.5,0.7s-1.5,2.2-1.5,5.4L221.1,48z"/>
	</g>
	<g>
		<path class="st37" d="M300.8,21.9c0,3.2-0.2,6.2-0.2,8.4c0,6.6,11.2,1.6,13.8-1c4.8-4.8,8-11.4,11.1-17.6c2-3.8,3.6-6.9,8.6-7.2
			c8.5-0.4,11.3,3,8.9,11.2c-3,10.1-6.7,19.8-15.4,26.6c-3.6,2.9-1.8,5.3,0.3,8.4c5.3,8,10.2,16.4,14.7,24.9c2.5,4.7,2,9.3-4.1,11.5
			c-5.8,2-9.8,0-12.5-6c-4.7-10.4-8.3-18.8-19.9-22.5c-8.3-2.6-1.9,28.7-16.3,28.9c-7.5,0.1-8.2-5.5-8.4-10.7
			c-0.3-16.9-0.3-33.7-0.4-50.6c0-3.3-0.1-6.7-0.1-10c-0.1-9,1.7-11.1,9.7-11.3C299.6,4.8,300.8,13.8,300.8,21.9"/>
		<path class="st38" d="M286.5,43L286.5,43c-0.8,0-1.5-0.7-1.4-1.5c0-0.1,0.5-14.4,0.3-22.6c-0.1-2.2-0.3-7.6,1.7-9.3
			c0.6-0.5,1.5-0.5,2,0.1s0.5,1.5-0.1,2c-0.6,0.6-0.9,3.9-0.7,7.1c0.3,8.4-0.3,22.7-0.3,22.8C287.9,42.4,287.3,43,286.5,43"/>
	</g>
	<g>
		
			<linearGradient id="SVGID_53_" gradientUnits="userSpaceOnUse" x1="63.8227" y1="1639.4706" x2="82.5452" y2="1650.28" gradientTransform="matrix(1 0 0 1 0 -1608)">
			<stop  offset="0" style="stop-color:#65A2FC"/>
			<stop  offset="1" style="stop-color:#0366FC"/>
		</linearGradient>
		<path class="st39" d="M82.6,38.9c0.1,1.5,0.1,3.1-0.8,4.4c-0.9,1.4-2.3,2.3-3.8,2.8c-3.7,1.3-8.1,1.3-11.4-1.1
			c-3.7-2.7-2.8-7.5-2.8-11.5c0-6.5,5.1-6.7,9.5-6.9c3.8-0.2,6.7,1.6,8,5.2c0.6,1.6,0.9,3.4,1,5.1C82.5,37.6,82.6,38.2,82.6,38.9"/>
		
			<linearGradient id="SVGID_54_" gradientUnits="userSpaceOnUse" x1="113.3959" y1="1639.2767" x2="131.7623" y2="1649.8806" gradientTransform="matrix(1 0 0 1 0 -1608)">
			<stop  offset="0" style="stop-color:#65A2FC"/>
			<stop  offset="1" style="stop-color:#0366FC"/>
		</linearGradient>
		<path class="st40" d="M131.3,42.5c-0.1,0.3-0.2,0.5-0.4,0.7c-3,5.2-11.8,4.5-16,1.4c-2.7-2-2.1-5.6-2-8.6c0.1-3.1,0.6-6.4,3.1-8.5
			c1.9-1.6,4.7-1.4,7-1.2c2.5,0.3,5.6,0.5,7.3,2.5c1,1.2,1.2,2.8,1.2,4.3c0,1.4,0,2.9,0.1,4.3C131.6,39.2,131.9,40.9,131.3,42.5"/>
		
			<linearGradient id="SVGID_55_" gradientUnits="userSpaceOnUse" x1="68.351" y1="1656.6295" x2="122.9634" y2="1688.16" gradientTransform="matrix(1 0 0 1 0 -1608)">
			<stop  offset="0" style="stop-color:#65A2FC"/>
			<stop  offset="1" style="stop-color:#0366FC"/>
		</linearGradient>
		<path class="st41" d="M131.2,57.1c0.2,0.5,0.3,1.1,0.3,1.6c0,2.3-1,4.8-1.7,7.1c-0.9,2.3-1.7,4.6-2.7,6.7c-2,4.3-4.6,8.4-8.5,11.2
			c-8.6,6.5-19.9,7.9-30.1,5c-6.6-1.9-12.6-5.6-16.9-10.9c-4.5-5.5-6.4-11.9-7.3-18.8c0-0.4-0.1-0.7-0.1-1.1c-0.1-1.2,0-2.4,0.7-3.4
			c0.6-0.7,1.4-1.2,2.3-1.5c3.4-1.1,6.8-1.8,10.3-0.5c3.1,1.1,4.3,3.3,4.7,6.4c1.1,7.8,8,14.8,16.2,14c3.9-0.4,7.5-2.2,10.1-5.1
			c2.6-2.9,3.9-6.6,4.5-10.4c0.5-3.4,3.4-4.7,6.6-5.3c2.1-0.4,4.5-0.5,6.5,0.3C128.2,53.2,130.4,54.9,131.2,57.1"/>
		<path class="st42" d="M119.7,31.5c0,0,5.3-2,7.8,2.4 M69.5,31.5c0,0,5.3-2,7.8,2.4"/>
	</g>
</g>
</svg>
