<?xml version="1.0" encoding="iso-8859-1"?>
<!-- Generator: Adobe Illustrator 21.1.0, SVG Export Plug-In . SVG Version: 6.00 Build 0)  -->
<svg version="1.1" id="Layer_1" xmlns="http://www.w3.org/2000/svg" xmlns:xlink="http://www.w3.org/1999/xlink" x="0px" y="0px"
	 viewBox="0 0 512 512" style="enable-background:new 0 0 512 512;" xml:space="preserve">
<g>
	<linearGradient id="SVGID_1_" gradientUnits="userSpaceOnUse" x1="-0.2039" y1="256.5546" x2="511.7892" y2="256.5546">
		<stop  offset="0" style="stop-color:#65A2FC"/>
		<stop  offset="0.2946" style="stop-color:#4890FC"/>
		<stop  offset="1" style="stop-color:#0366FC"/>
	</linearGradient>
	<path style="fill:url(#SVGID_1_);" d="M483.625,28.718C464.855,9.943,442.24,0.554,415.798,0.554H95.796
		c-26.442,0-49.057,9.389-67.835,28.164C9.185,47.497-0.204,70.11-0.204,96.553v319.999c0,26.441,9.389,49.057,28.164,67.835
		c18.778,18.778,41.393,28.168,67.835,28.168h319.999c26.442,0,49.057-9.389,67.827-28.168
		c18.778-18.778,28.168-41.393,28.168-67.835V96.553C511.788,70.11,502.399,47.493,483.625,28.718z"/>
</g>
<g>
	<path style="fill:#FFFFFF;" d="M166.282,260.399c-28.964,5.985-50.085,30.753-51.392,60.267
		c-1.307,29.514,17.543,56.07,45.819,64.601c6.123,1.858,12.384,2.752,18.575,2.752c22.153,0,43.342-11.489,55.244-31.372
		c15.204-25.317,11.283-57.652-9.563-78.567C209.624,262.6,187.678,255.996,166.282,260.399z M223.865,350.386
		c-12.246,20.433-36.807,29.927-59.647,23.047c-22.841-6.88-38.045-28.276-37.013-52.148c1.032-23.873,18.094-43.893,41.485-48.709
		c3.577-0.757,7.086-1.101,10.595-1.101c13.691,0,26.969,5.435,36.875,15.411C232.947,303.81,236.111,329.953,223.865,350.386z"/>
	<path style="fill:#FFFFFF;" d="M426.474,158.028l-24.286-24.286l4.128-4.128c9.15-9.15,9.15-23.942,0-33.092
		c-9.15-9.15-23.941-9.15-33.092,0l-16.58,16.58c-2.202,2.27-2.202,5.985,0.069,8.256c2.27,2.27,5.917,2.27,8.256,0.069l16.58-16.58
		c2.889-3.027,7.293-4.265,11.352-3.233c4.059,1.032,7.293,4.265,8.324,8.324s-0.138,8.462-3.233,11.352l-8.256,8.256
		l-33.023,33.023l-82.488,82.695l-16.511-16.511l74.095-74.095c2.202-2.27,2.202-5.985-0.069-8.256
		c-2.27-2.27-5.917-2.27-8.256-0.069l-74.026,74.164c-6.88-6.811-17.956-6.811-24.767,0l-10.05,10.05
		c-15.168-5.791-31.443-7.727-47.877-5.647c-42.517,5.435-76.778,37.288-85.171,79.324c-8.393,42.035,10.939,84.621,48.089,105.948
		c15.479,8.944,32.61,13.278,49.603,13.278c23.804,0,47.402-8.531,66.183-25.111c31.106-27.635,41.677-71.394,27.01-109.98
		l10.003-10.003c6.811-6.88,6.811-17.956,0-24.836l61.918-61.918l24.767,24.767c3.165,3.233,7.568,5.091,12.108,5.091h0.206
		c5.229,0.069,10.182-2.202,13.484-6.261c5.779-7.224,5.16-17.681-1.514-24.148l-7.774-7.774l8.187-8.256l8.256,8.256
		c3.509,3.44,8.256,5.297,13.209,5.091c4.953-0.206,9.494-2.477,12.659-6.192C433.767,174.952,433.147,164.495,426.474,158.028z
		 M237.143,389.119c-16.374,14.516-37.013,22.015-57.859,22.015c-14.929,0-29.927-3.853-43.48-11.627
		c-32.541-18.713-49.465-56.001-42.104-92.808c7.361-36.807,37.288-64.738,74.508-69.486c3.715-0.482,7.361-0.688,11.008-0.688
		c34.605,0,66.596,20.777,80.356,53.18C274.225,324.243,265.213,364.214,237.143,389.119z M274.156,270.03l-6.885,6.885
		c-8.798-16.545-21.876-30.094-38.315-39.564c-0.969-0.558-1.948-1.087-2.93-1.611l6.92-6.92c2.27-2.27,5.917-2.27,8.187,0
		l33.023,33.023C276.427,264.114,276.427,267.76,274.156,270.03z M419.182,174.608c-1.032,1.238-2.546,1.995-4.197,2.064
		c-1.651,0.069-3.233-0.55-4.403-1.651l-8.256-8.256c-4.609-4.403-11.902-4.403-16.58,0l-8.256,8.256
		c-2.202,2.202-3.44,5.16-3.44,8.256c0,3.096,1.238,6.054,3.44,8.256l7.774,7.774c2.339,2.133,2.683,5.71,0.826,8.256
		c-1.101,1.376-2.821,2.133-4.541,2.064c-1.514-0.069-2.958-0.619-4.059-1.651l-24.767-24.767l13.072-13.072l28.207-28.207
		l24.354,24.423C420.695,168.485,421.039,172.063,419.182,174.608z"/>
	<path style="fill:#FFFFFF;" d="M340.133,138.077c1.651,1.72,4.197,2.202,6.398,1.307c2.202-0.894,3.646-3.096,3.646-5.435
		l-0.138-1.101c-0.069-0.413-0.206-0.757-0.344-1.101c-0.138-0.344-0.275-0.688-0.482-0.963c-0.206-0.344-0.482-0.619-0.757-0.894
		c-1.651-1.72-4.197-2.202-6.398-1.238c-2.202,0.894-3.577,3.027-3.646,5.435c0,0.757,0.206,1.514,0.482,2.27
		C339.17,136.838,339.583,137.526,340.133,138.077z"/>
</g>
</svg>
