<?xml version="1.0" encoding="iso-8859-1"?>
<!-- Generator: Adobe Illustrator 21.1.0, SVG Export Plug-In . SVG Version: 6.00 Build 0)  -->
<svg version="1.1" id="Layer_1" xmlns="http://www.w3.org/2000/svg" xmlns:xlink="http://www.w3.org/1999/xlink" x="0px" y="0px"
	 viewBox="0 0 512 512" style="enable-background:new 0 0 512 512;" xml:space="preserve">
<linearGradient id="SVGID_1_" gradientUnits="userSpaceOnUse" x1="-0.1632" y1="255.7201" x2="511.8298" y2="255.7201">
	<stop  offset="0" style="stop-color:#65A2FC"/>
	<stop  offset="0.2946" style="stop-color:#4890FC"/>
	<stop  offset="1" style="stop-color:#0366FC"/>
</linearGradient>
<path style="fill:url(#SVGID_1_);" d="M483.666,27.884C464.896,9.109,442.281-0.28,415.839-0.28H95.837
	c-26.442,0-49.057,9.389-67.835,28.164C9.227,46.663-0.163,69.276-0.163,95.719v319.999c0,26.441,9.389,49.057,28.164,67.835
	c18.778,18.778,41.393,28.168,67.835,28.168h319.999c26.442,0,49.057-9.389,67.827-28.168
	c18.778-18.778,28.168-41.393,28.168-67.835V95.719C511.829,69.276,502.44,46.659,483.666,27.884z"/>
<g>
	<g>
		<path style="fill:#FFFFFF;" d="M358.84,190.097c0-2.892,2.345-5.238,5.237-5.238s5.238,2.357,5.238,5.238v200.928
			c0,8.871-3.645,16.946-9.494,22.805c-5.848,5.849-13.934,9.493-22.805,9.493H174.651c-8.871,0-16.968-3.644-22.806-9.493
			c-5.849-5.849-9.493-13.922-9.493-22.805V190.097c0-2.892,2.346-5.238,5.237-5.238c2.892,0,5.238,2.357,5.238,5.238v200.928
			c0,5.98,2.466,11.446,6.416,15.396c3.95,3.95,9.417,6.427,15.396,6.427h162.367c5.979,0,11.435-2.477,15.385-6.427
			c3.961-3.961,6.426-9.417,6.426-15.385V190.097H358.84z"/>
		<path style="fill:#FFFFFF;" d="M216.769,377.495c0,2.892-2.346,5.237-5.238,5.237c-2.892,0-5.238-2.346-5.238-5.237V191.45
			c0-2.892,2.346-5.238,5.238-5.238c2.892,0,5.238,2.346,5.238,5.238V377.495z"/>
		<path style="fill:#FFFFFF;" d="M261.071,377.495c0,2.892-2.346,5.237-5.237,5.237s-5.238-2.346-5.238-5.237V191.45
			c0-2.892,2.346-5.238,5.238-5.238c2.892,0,5.237,2.346,5.237,5.238V377.495z"/>
		<path style="fill:#FFFFFF;" d="M305.384,377.495c0,2.892-2.345,5.237-5.237,5.237c-2.892,0-5.238-2.346-5.238-5.237V191.45
			c0-2.892,2.346-5.238,5.238-5.238c2.892,0,5.237,2.346,5.237,5.238V377.495L305.384,377.495z"/>
		<path style="fill:#FFFFFF;" d="M213.714,120.415c0,2.892-2.346,5.238-5.238,5.238c-2.891,0-5.237-2.346-5.237-5.238
			c0-8.893,3.633-16.968,9.483-22.816c5.849-5.849,13.923-9.483,22.816-9.483h40.592c8.882,0,16.957,3.644,22.805,9.493
			c5.849,5.849,9.494,13.945,9.494,22.806c0,2.892-2.346,5.238-5.237,5.238s-5.237-2.346-5.237-5.238
			c0-5.979-2.466-11.446-6.416-15.396c-3.951-3.95-9.417-6.427-15.396-6.427h-40.591c-5.991,0-11.446,2.466-15.407,6.416
			C216.18,108.969,213.714,114.425,213.714,120.415z"/>
		<path style="fill:#FFFFFF;" d="M134.059,135.473h243.549c5.139,0,9.831,2.106,13.236,5.511l0.022,0.022
			c3.405,3.404,5.511,8.096,5.511,13.236v13.531c0,2.891-2.346,5.237-5.238,5.237h-0.142H120.528c-2.892,0-5.238-2.346-5.238-5.237
			v-0.131v-13.4c0-5.128,2.106-9.832,5.511-13.236l0.022-0.022C124.228,137.579,128.93,135.473,134.059,135.473L134.059,135.473z
			 M377.608,145.948h-243.55c-2.28,0-4.365,0.928-5.849,2.422l-0.022,0.022c-1.495,1.484-2.422,3.557-2.422,5.849v8.293H385.89
			v-8.293c0-2.28-0.928-4.365-2.422-5.849l-0.023-0.022C381.962,146.876,379.889,145.948,377.608,145.948z"/>
	</g>
</g>
</svg>
