<?xml version="1.0" encoding="iso-8859-1"?>
<!-- Generator: Adobe Illustrator 21.1.0, SVG Export Plug-In . SVG Version: 6.00 Build 0)  -->
<svg version="1.1" id="Capa_1" xmlns="http://www.w3.org/2000/svg" xmlns:xlink="http://www.w3.org/1999/xlink" x="0px" y="0px"
	 viewBox="0 0 512 512" style="enable-background:new 0 0 512 512;" xml:space="preserve">
<g>
	<g>
		<path style="fill:#FFFFFF;" d="M413.334,155.767c0-4.417,3.582-8,7.999-8s8.001,3.6,8.001,8v306.901
			c0,13.549-5.567,25.883-14.501,34.833c-8.933,8.933-21.284,14.5-34.833,14.5h-248c-13.55,0-25.916-5.567-34.834-14.5
			c-8.933-8.933-14.5-21.265-14.5-34.833V155.767c0-4.417,3.583-8,8-8c4.417,0,8,3.6,8,8v306.901c0,9.134,3.767,17.483,9.8,23.516
			c6.033,6.034,14.383,9.816,23.517,9.816h248.001c9.133,0,17.465-3.784,23.5-9.816c6.05-6.05,9.816-14.383,9.816-23.5V155.767
			H413.334z"/>
		<path style="fill:#FFFFFF;" d="M196.333,442c0,4.417-3.583,8-8,8s-8-3.583-8-8V157.833c0-4.417,3.583-8,8-8s8,3.583,8,8V442z"/>
		<path style="fill:#FFFFFF;" d="M264.001,442c0,4.417-3.583,8-8,8c-4.417,0-8-3.583-8-8V157.833c0-4.417,3.583-8,8-8
			c4.417,0,8,3.583,8,8V442z"/>
		<path style="fill:#FFFFFF;" d="M331.684,442c0,4.417-3.582,8-7.999,8c-4.418,0-8-3.583-8-8V157.833c0-4.417,3.583-8,8-8
			c4.417,0,7.999,3.583,7.999,8V442L331.684,442z"/>
		<path style="fill:#FFFFFF;" d="M191.667,49.333c0,4.417-3.583,8-8,8c-4.416,0-7.999-3.583-7.999-8
			c0-13.584,5.55-25.916,14.484-34.85C199.084,5.55,211.418,0,225.001,0h62c13.567,0,25.9,5.567,34.832,14.5
			c8.933,8.933,14.501,21.3,14.501,34.834c0,4.417-3.583,8-8,8s-8-3.583-8-8c0-9.133-3.766-17.483-9.8-23.517
			C304.5,19.783,296.151,16,287.018,16h-61.999c-9.15,0-17.483,3.766-23.533,9.8C195.433,31.85,191.667,40.183,191.667,49.333z"/>
		<path style="fill:#FFFFFF;" d="M70,72.333h372c7.849,0,15.016,3.216,20.217,8.417l0.033,0.034c5.2,5.2,8.417,12.366,8.417,20.217
			v20.667c0,4.416-3.583,7.999-8,7.999h-0.217H49.334c-4.417,0-8-3.583-8-7.999v-0.2V101c0-7.833,3.216-15.017,8.417-20.217
			l0.034-0.034C54.984,75.55,62.167,72.333,70,72.333L70,72.333z M442.001,88.333H70c-3.483,0-6.667,1.417-8.933,3.7l-0.034,0.034
			c-2.283,2.266-3.7,5.433-3.7,8.933v12.667H454.65V101c0-3.483-1.417-6.667-3.699-8.933l-0.034-0.034
			C448.651,89.75,445.484,88.333,442.001,88.333z"/>
	</g>
</g>
</svg>
