<?xml version="1.0" encoding="iso-8859-1"?>
<!-- Generator: Adobe Illustrator 21.1.0, SVG Export Plug-In . SVG Version: 6.00 Build 0)  -->
<svg version="1.1" id="Capa_1" xmlns="http://www.w3.org/2000/svg" xmlns:xlink="http://www.w3.org/1999/xlink" x="0px" y="0px"
	 viewBox="0 0 512 512" style="enable-background:new 0 0 512 512;" xml:space="preserve">
<g>
	<linearGradient id="SVGID_1_" gradientUnits="userSpaceOnUse" x1="0.0031" y1="256.6346" x2="511.9962" y2="256.6346">
		<stop  offset="0" style="stop-color:#65A2FC"/>
		<stop  offset="0.2946" style="stop-color:#4890FC"/>
		<stop  offset="1" style="stop-color:#0366FC"/>
	</linearGradient>
	<path style="fill:url(#SVGID_1_);" d="M483.832,28.798c-18.77-18.775-41.385-28.164-67.827-28.164H96.003
		c-26.442,0-49.057,9.389-67.835,28.164C9.392,47.577,0.003,70.19,0.003,96.633v319.999c0,26.441,9.389,49.057,28.164,67.835
		c18.778,18.778,41.393,28.168,67.835,28.168h319.999c26.442,0,49.057-9.389,67.827-28.168
		c18.778-18.778,28.168-41.393,28.168-67.835V96.633C511.995,70.19,502.606,47.573,483.832,28.798z"/>
</g>
<g>
	<path style="fill:#FFFFFF;" d="M393.531,119.105c-27.201-27.269-71.437-27.269-98.638,0L114.045,299.886
		c-1.414,1.414-2.289,3.232-2.559,5.184l-13.399,99.244c-0.404,2.828,0.606,5.656,2.559,7.608c1.683,1.683,4.04,2.693,6.396,2.693
		c0.404,0,0.808,0,1.212-0.067l59.789-8.08c4.982-0.673,8.484-5.252,7.81-10.234c-0.673-4.982-5.252-8.484-10.234-7.81
		l-47.939,6.464l9.359-69.215l72.851,72.851c1.683,1.683,4.04,2.693,6.396,2.693c2.357,0,4.713-0.943,6.396-2.693l180.848-180.781
		c13.197-13.197,20.468-30.702,20.468-49.353S406.728,132.234,393.531,119.105z M298.394,141.324l30.366,30.366L163.734,336.715
		l-30.366-30.366L298.394,141.324z M206.354,379.268l-29.692-29.692L341.687,184.55l29.692,29.692L206.354,379.268z
		 M384.038,201.247l-72.649-72.649c9.224-7.608,20.738-11.783,32.857-11.783c13.803,0,26.73,5.386,36.493,15.082
		c9.763,9.695,15.082,22.69,15.082,36.493C395.82,180.577,391.646,192.023,384.038,201.247z"/>
</g>
</svg>
