<?xml version="1.0" encoding="iso-8859-1"?>
<!-- Generator: Adobe Illustrator 21.1.0, SVG Export Plug-In . SVG Version: 6.00 Build 0)  -->
<svg version="1.1" id="Capa_1" xmlns="http://www.w3.org/2000/svg" xmlns:xlink="http://www.w3.org/1999/xlink" x="0px" y="0px"
	 viewBox="0 0 512.059 512.059" style="enable-background:new 0 0 512.059 512.059;" xml:space="preserve">
<g>
	<path style="fill:#FFFFFF;" d="M266.422,209.617l6,6l185.5-185.5c1.8-1.7,3.8-3.2,6-4.4c-4.7-2.7-10.1-3.9-15.5-3.4
		c-6.1,0.7-11.7,3.5-16,7.9l-174.9,174.8C260.922,205.617,264.022,207.217,266.422,209.617z"/>
	<path style="fill:#FFFFFF;" d="M127.622,488.517c1.5,0.2,3,0.3,4.5,0.4h0.1c8.1,0.7,16.3,0.7,24.4-0.1c-1.2-0.1-2.3-0.2-3.4-0.3
		c-67.9-8.5-118.9-66.3-118.9-134.7s51-126.2,118.9-134.7c1.6-0.2,3.1-0.4,4.7-0.4h0.3c-8.6-0.8-17.3-0.8-25.9,0
		c-1.6,0.1-3.1,0.2-4.7,0.4c-67.9,8.5-118.9,66.2-118.9,134.7S59.722,480.017,127.622,488.517L127.622,488.517z"/>
	<path style="fill:#FFFFFF;" d="M223.322,228.617l18.2-18.2l-0.8-0.8c-6.7-6.6-17.4-6.6-24,0l-12.6,12.6
		C210.722,223.917,217.122,226.017,223.322,228.617z"/>
</g>
<path style="fill:#428DFF;" d="M144.822,498.617c-24.7,0-49.6-6.3-72.1-19.3c-54-31-82.1-92.9-69.9-154s62-107.4,123.8-115.3
	c31.6-4,62.8,2.2,90.4,18.1s48.7,39.7,61.2,69c24.3,57.3,9.4,123.6-37.2,165C213.722,486.217,179.422,498.617,144.822,498.617z
	 M144.722,226.917c-5.3,0-10.6,0.3-16,1c-54.1,6.9-97.6,47.5-108.3,101s13.9,107.7,61.2,134.9c19.7,11.3,41.5,16.9,63.2,16.9
	c30.3,0,60.3-10.9,84.1-32c40.8-36.2,53.9-94.3,32.6-144.5l0,0C241.522,257.117,195.022,226.917,144.722,226.917z M144.822,447.117
	c-9,0-18.1-1.3-27-4c-41.1-12.4-68.5-51-66.6-93.9s32.6-78.9,74.7-87.6c31.1-6.4,63,3.2,85.3,25.7l0,0c30.3,30.4,36,77.4,13.9,114.2
	C207.822,430.417,177.022,447.117,144.822,447.117z M144.822,277.717c-5.1,0-10.2,0.5-15.4,1.6c-34,7-58.8,36.1-60.3,70.8
	s20.6,65.8,53.8,75.8s68.9-3.8,86.7-33.5s13.2-67.7-11.2-92.3l0,0C184.022,285.617,164.722,277.717,144.822,277.717z"/>
<polygon style="fill:#FFFFFF;" points="439.022,35.517 360.522,114.017 252.822,221.717 240.822,209.617 348.522,101.917 
	426.922,23.417 "/>
<g>
	<path style="fill:#428DFF;" d="M203.822,234.717l19-19c3.3-3.3,8.6-3.3,11.9,0l48,48c3.3,3.3,3.3,8.6,0,11.9l-19,19
		c-2.2,2.1-3.1,5.3-2.3,8.3c0.8,3,3.1,5.3,6.1,6.1c3,0.8,6.2-0.1,8.3-2.3l19-19c9.9-10,9.9-26.1,0-36.1l90-90l36,36
		c4.6,4.7,11,7.4,17.6,7.4h0.3c7.6,0.1,14.8-3.2,19.6-9.1c8.4-10.5,7.5-25.7-2.2-35.1l-11.3-11.3l11.9-12l12,12
		c5.1,5,12,7.7,19.2,7.4s13.8-3.6,18.4-9c8.4-10.5,7.5-25.7-2.2-35.1l-35.3-35.3l6-6c13.3-13.3,13.3-34.8,0-48.1s-34.8-13.3-48.1,0
		l-24.1,24.1c-3.2,3.3-3.2,8.7,0.1,12c3.3,3.3,8.6,3.3,12,0.1l24.1-24.1c4.2-4.4,10.6-6.2,16.5-4.7s10.6,6.2,12.1,12.1
		s-0.2,12.3-4.7,16.5l-12,12l-48,48l-119.9,120.2l-24-24l107.7-107.7c3.2-3.3,3.2-8.7-0.1-12c-3.3-3.3-8.6-3.3-12-0.1l-107.6,107.8
		c-10-9.9-26.1-9.9-36,0l-19,19c-3.2,3.3-3.2,8.7,0.1,12C195.122,237.817,200.422,237.917,203.822,234.717L203.822,234.717z
		 M492.322,124.917c3.4,3.1,3.9,8.3,1.2,12c-1.5,1.8-3.7,2.9-6.1,3s-4.7-0.8-6.4-2.4l-12-12c-6.7-6.4-17.3-6.4-24.1,0l-12,12
		c-3.2,3.2-5,7.5-5,12s1.8,8.8,5,12l11.3,11.3c3.4,3.1,3.9,8.3,1.2,12c-1.6,2-4.1,3.1-6.6,3c-2.2-0.1-4.3-0.9-5.9-2.4l-36-36l19-19
		l41-41L492.322,124.917z"/>
	<path style="fill:#428DFF;" d="M378.622,83.817c2.4,2.5,6.1,3.2,9.3,1.9c3.2-1.3,5.3-4.5,5.3-7.9l-0.2-1.6
		c-0.1-0.6-0.3-1.1-0.5-1.6s-0.4-1-0.7-1.4c-0.3-0.5-0.7-0.9-1.1-1.3c-2.4-2.5-6.1-3.2-9.3-1.8c-3.2,1.3-5.2,4.4-5.3,7.9
		c0,1.1,0.3,2.2,0.7,3.3C377.222,82.017,377.822,83.017,378.622,83.817z"/>
</g>
</svg>
