<?xml version="1.0" encoding="iso-8859-1"?>
<!-- Generator: Adobe Illustrator 21.1.0, SVG Export Plug-In . SVG Version: 6.00 Build 0)  -->
<svg version="1.1" id="Capa_1" xmlns="http://www.w3.org/2000/svg" xmlns:xlink="http://www.w3.org/1999/xlink" x="0px" y="0px"
	 viewBox="0 0 512 512" style="enable-background:new 0 0 512 512;" xml:space="preserve">
<g>
	<g>
		<path style="fill:#FFFFFF;" d="M0,126.408v259.185c0,35.714,29.135,64.848,64.848,64.848h209.478
			c35.714,0,64.848-29.135,64.848-64.848v-41.979c0-7.101-5.743-12.844-12.844-12.844c-7.101,0-12.844,5.743-12.844,12.844v41.979
			c0,21.616-17.648,39.264-39.264,39.264H64.848c-21.616,0-39.264-17.648-39.264-39.264V126.408
			c0-21.616,17.648-39.264,39.264-39.264h209.478c21.616,0,39.264,17.648,39.264,39.264v41.979c0,7.101,5.743,12.844,12.844,12.844
			c7.101,0,12.844-5.743,12.844-12.844v-41.979c0-35.714-29.135-64.848-64.848-64.848H64.848C29.135,61.559,0,90.589,0,126.408z"/>
		<path style="fill:#FFFFFF;" d="M402.457,352.594c2.506,2.506,5.743,3.759,9.085,3.759s6.579-1.253,9.085-3.759l87.613-87.613
			c5.012-5.012,5.012-13.053,0-18.066l-87.613-87.613c-5.012-5.012-13.053-5.012-18.066,0s-5.012,13.053,0,18.066l65.788,65.788
			H228.275c-7.101,0-12.844,5.743-12.844,12.844s5.743,12.844,12.844,12.844h239.971l-65.788,65.788
			C397.445,339.541,397.445,347.686,402.457,352.594z"/>
	</g>
</g>
<g>
	<linearGradient id="SVGID_1_" gradientUnits="userSpaceOnUse" x1="0.0035" y1="256" x2="511.9965" y2="256">
		<stop  offset="0" style="stop-color:#65A2FC"/>
		<stop  offset="0.2946" style="stop-color:#4890FC"/>
		<stop  offset="1" style="stop-color:#0366FC"/>
	</linearGradient>
	<path style="fill:url(#SVGID_1_);" d="M483.832,28.164c-18.77-18.775-41.385-28.164-67.827-28.164H96.003
		c-26.442,0-49.057,9.389-67.835,28.164C9.393,46.942,0.003,69.556,0.003,95.999v319.999c0,26.441,9.389,49.057,28.164,67.835
		c18.778,18.778,41.393,28.168,67.835,28.168h319.999c26.442,0,49.057-9.389,67.827-28.168
		c18.778-18.778,28.168-41.393,28.168-67.835V95.999C511.995,69.556,502.606,46.938,483.832,28.164z"/>
</g>
<g>
	<g>
		<path style="fill:#FFFFFF;" d="M68.431,161.049v189.903c0,26.167,21.347,47.514,47.514,47.514h153.483
			c26.167,0,47.514-21.347,47.514-47.514v-30.758c0-5.203-4.208-9.411-9.411-9.411s-9.411,4.208-9.411,9.411v30.758
			c0,15.838-12.931,28.769-28.769,28.769H115.945c-15.838,0-28.769-12.931-28.769-28.769V161.049
			c0-15.838,12.931-28.769,28.769-28.769h153.483c15.838,0,28.769,12.931,28.769,28.769v30.758c0,5.203,4.208,9.411,9.411,9.411
			c5.203,0,9.411-4.208,9.411-9.411v-30.758c0-26.167-21.347-47.514-47.514-47.514h-153.56
			C89.778,113.535,68.431,134.805,68.431,161.049z"/>
		<path style="fill:#FFFFFF;" d="M363.308,326.774c1.836,1.836,4.208,2.754,6.657,2.754s4.82-0.918,6.657-2.754l64.194-64.194
			c3.673-3.673,3.673-9.564,0-13.237l-64.194-64.194c-3.673-3.673-9.564-3.673-13.237,0c-3.673,3.673-3.673,9.564,0,13.237
			l48.203,48.203H235.686c-5.203,0-9.411,4.208-9.411,9.411s4.208,9.411,9.411,9.411h175.825l-48.203,48.203
			C359.636,317.21,359.636,323.178,363.308,326.774z"/>
	</g>
</g>
</svg>
