<?xml version="1.0" encoding="iso-8859-1"?>
<!-- Generator: Adobe Illustrator 21.1.0, SVG Export Plug-In . SVG Version: 6.00 Build 0)  -->
<svg version="1.1" id="Capa_1" xmlns="http://www.w3.org/2000/svg" xmlns:xlink="http://www.w3.org/1999/xlink" x="0px" y="0px"
	 viewBox="0 0 512 512" style="enable-background:new 0 0 512 512;" xml:space="preserve">
<g>
	<linearGradient id="SVGID_1_" gradientUnits="userSpaceOnUse" x1="0.0032" y1="255.9583" x2="511.9963" y2="255.9583">
		<stop  offset="0" style="stop-color:#65A2FC"/>
		<stop  offset="0.2946" style="stop-color:#4890FC"/>
		<stop  offset="1" style="stop-color:#0366FC"/>
	</linearGradient>
	<path style="fill:url(#SVGID_1_);" d="M483.832,28.122c-18.77-18.775-41.385-28.164-67.827-28.164H96.003
		c-26.442,0-49.057,9.389-67.835,28.164C9.392,46.9,0.003,69.514,0.003,95.957v319.999c0,26.441,9.389,49.057,28.164,67.835
		c18.778,18.778,41.393,28.168,67.835,28.168h319.999c26.442,0,49.057-9.389,67.827-28.168
		c18.778-18.778,28.168-41.393,28.168-67.835V95.957C511.995,69.514,502.606,46.897,483.832,28.122z"/>
</g>
<g>
	<g>
		<g>
			<path style="fill:#FFFFFF;" d="M256,277.207c-13.403,0-24.308,10.905-24.308,24.308c0,11.215,7.636,20.675,17.98,23.467v34.961
				c0,3.494,2.833,6.327,6.327,6.327c3.494,0,6.327-2.833,6.327-6.327v-34.961c10.344-2.792,17.98-12.253,17.98-23.467
				C280.308,288.112,269.403,277.207,256,277.207z M256,313.169c-6.426,0-11.654-5.228-11.654-11.654s5.228-11.654,11.654-11.654
				s11.654,5.228,11.654,11.654C267.654,307.941,262.426,313.169,256,313.169z"/>
		</g>
	</g>
	<g>
		<g>
			<path style="fill:#FFFFFF;" d="M341.417,209.178h-14.191v-43.326c0-39.275-31.952-71.227-71.227-71.227
				s-71.227,31.952-71.227,71.227v43.326h-14.191c-20.782,0-37.689,16.905-37.689,37.683v132.743
				c0,20.782,16.908,37.689,37.689,37.689h170.836c20.782,0,37.689-16.907,37.689-37.689V246.86
				C379.106,226.082,362.198,209.178,341.417,209.178z M197.426,165.851c0-32.298,26.276-58.574,58.574-58.574
				s58.574,26.276,58.574,58.574v43.326h-17.842v-43.326c0-22.463-18.272-40.739-40.732-40.739
				c-22.459,0-40.732,18.275-40.732,40.739v43.326h-17.842L197.426,165.851L197.426,165.851z M284.078,165.851v43.326h-56.157
				v-43.326c0-15.486,12.596-28.085,28.078-28.085S284.078,150.365,284.078,165.851z M366.453,379.602
				c0,13.805-11.231,25.035-25.035,25.035H170.582c-13.805,0-25.035-11.231-25.035-25.035V246.86
				c0-13.8,11.231-25.029,25.035-25.029h20.518h30.495h68.811H320.9h20.518c13.805,0,25.035,11.228,25.035,25.029V379.602z"/>
		</g>
	</g>
	<g>
		<g>
			<path style="fill:#FFFFFF;" d="M351.522,270.496c-3.494,0-6.327,2.833-6.327,6.327v55.778c0,3.494,2.833,6.327,6.327,6.327
				c3.493,0,6.327-2.833,6.327-6.327v-55.778C357.848,273.329,355.015,270.496,351.522,270.496z"/>
		</g>
	</g>
	<g>
		<g>
			<path style="fill:#FFFFFF;" d="M351.372,249.621c-8.142,0-8.156,12.653,0,12.653
				C359.514,262.275,359.528,249.621,351.372,249.621z"/>
		</g>
	</g>
</g>
</svg>
