<svg xmlns="http://www.w3.org/2000/svg" viewBox="0 0 512.001 512.001"><path d="M225.823 54.182h274.748v228.96H225.823V54.182z" fill="#fff"/><path d="M500.571 292.044H225.823a8.906 8.906 0 0 1-8.906-8.903V54.182a8.907 8.907 0 0 1 8.906-8.903h274.748a8.907 8.907 0 0 1 8.903 8.903v228.96a8.903 8.903 0 0 1-8.903 8.902zm-265.845-17.805h256.946V63.088H234.726v211.151z" fill="#1b75bb"/><path d="M454.779 246.256H271.611a8.906 8.906 0 0 1-7.406-13.844l45.792-68.688a8.906 8.906 0 0 1 6.529-3.923 8.952 8.952 0 0 1 7.173 2.564l15.217 15.217 39.769-59.65a8.838 8.838 0 0 1 7.62-3.964 8.913 8.913 0 0 1 7.423 4.321l68.688 114.48a8.899 8.899 0 0 1 .111 8.968 8.894 8.894 0 0 1-7.748 4.519zm-166.53-17.809h150.808L385.7 139.518 347.709 196.5a8.916 8.916 0 0 1-6.532 3.923 8.915 8.915 0 0 1-7.173-2.568l-15.213-15.213c-.002-.001-30.542 45.805-30.542 45.805z" fill="#1b75bb"/><path d="M317.407 154.672c-17.538 0-31.802-14.267-31.802-31.802s14.264-31.799 31.802-31.799c17.531 0 31.799 14.264 31.799 31.799s-14.268 31.802-31.799 31.802zm0-45.792c-7.724.008-13.984 6.266-13.993 13.99.01 7.724 6.269 13.984 13.993 13.993 7.724-.01 13.982-6.27 13.99-13.993-.01-7.722-6.268-13.98-13.99-13.99z" fill="#1b75bb"/><path d="M103.709 218.044a8.903 8.903 0 0 1-8.899-8.903v-13.993H82.088v13.993a8.906 8.906 0 0 1-17.809 0v-22.896a8.903 8.903 0 0 1 8.903-8.903h30.53a8.903 8.903 0 0 1 8.903 8.903v22.896a8.906 8.906 0 0 1-8.906 8.903z" fill="#652d90"/><circle cx="76.997" cy="266.379" r="11.45" fill="#652d90"/><path d="M35.652 104.649a5.09 5.09 0 0 1-5.087-5.008v-.075c0-8.899-7.482-9.72-9.786-9.755a5.086 5.086 0 1 1-.048-10.174h.083c8.896 0 9.717-7.482 9.752-9.786a5.088 5.088 0 1 1 10.177-.045v.062c0 8.896 7.485 9.714 9.79 9.752a5.086 5.086 0 1 1 .048 10.174H50.494c-8.896 0-9.717 7.482-9.752 9.786a5.092 5.092 0 0 1-5.09 5.069zm-1.119-19.905c.388.347.773.714 1.14 1.099.347-.392.714-.776 1.095-1.144a21.18 21.18 0 0 1-1.144-1.099c-.345.398-.709.78-1.091 1.144z" fill="#f6921e"/><path d="M426.723 424.41a5.087 5.087 0 0 1-5.087-5.087c0-11.737-10.431-12.482-12.538-12.51a5.086 5.086 0 1 1-.048-10.174h.076c12.164 0 12.51-11.228 12.51-12.507a5.088 5.088 0 1 1 10.178 0c0 11.73 10.424 12.479 12.531 12.507a5.09 5.09 0 0 1 .048 10.174H444.317c-12.157 0-12.503 11.231-12.503 12.51a5.095 5.095 0 0 1-5.091 5.087zm-2.79-22.64a20.366 20.366 0 0 1 2.838 2.741 20.532 20.532 0 0 1 2.741-2.838 21.199 21.199 0 0 1-2.842-2.738 20.322 20.322 0 0 1-2.737 2.835z" fill="#1b75bb"/><path fill="#fff" d="M205.484 51.651h158.993v233.19H205.484z"/><path fill="#a4c2f7" d="M343.278 51.651h158.993v233.19H343.278z"/><path fill="#e3e7f2" d="M221.383 51.651h264.988v233.19H221.383z"/><path fill="#7facfa" d="M332.678 205.344v-74.196l58.297 37.098z"/><path d="M369.777 168.246l-37.938-24.142c-.029.142-.031.299-.058.442.028 1.238.04 2.475.005 3.739a13.007 13.007 0 0 0 1.207 7.793 4.949 4.949 0 0 1-.581 6.455c.679 4.16 1.133 8.353 1.359 12.563a122.795 122.795 0 0 1-.776 16.559l36.782-23.409z" fill="#a4c2f7"/><path fill="#7facfa" d="M449.273 51.651h52.998v58.297h-52.998z"/><g fill="#a4c2f7"><path d="M449.273 51.651h37.098v58.297h-37.098zM221.383 51.651h37.098v58.297h-37.098zM221.383 168.246h37.098v58.297h-37.098z"/></g><path fill="#7facfa" d="M449.273 168.246h52.998v58.297h-52.998z"/><path fill="#a4c2f7" d="M449.273 168.246h37.098v58.297h-37.098z"/><g fill="#1b75bb"><path d="M502.27 290.14H205.484a5.297 5.297 0 0 1-5.3-5.3V51.651a5.297 5.297 0 0 1 5.3-5.3h296.787a5.297 5.297 0 0 1 5.3 5.3v233.19a5.297 5.297 0 0 1-5.301 5.299zm-291.487-10.599H496.97V56.951H210.783v222.59z"/><path d="M332.678 210.644a5.297 5.297 0 0 1-5.3-5.3v-74.197a5.297 5.297 0 0 1 8.146-4.471l58.297 37.098a5.303 5.303 0 0 1 0 8.943l-58.297 37.098a5.314 5.314 0 0 1-2.846.829zm5.3-69.844v54.892l43.125-27.446-43.125-27.446zM258.481 115.248h-52.997a5.297 5.297 0 0 1-5.3-5.3V51.651a5.297 5.297 0 0 1 5.3-5.3h52.998a5.297 5.297 0 0 1 5.3 5.3v58.297a5.297 5.297 0 0 1-5.301 5.3zm-47.698-10.599h42.398V56.951h-42.398v47.698z"/><path d="M258.481 173.546h-52.997a5.297 5.297 0 0 1-5.3-5.3v-58.297a5.297 5.297 0 0 1 5.3-5.3h52.998a5.297 5.297 0 0 1 5.3 5.3v58.297a5.297 5.297 0 0 1-5.301 5.3zm-47.698-10.6h42.398v-47.698h-42.398v47.698z"/><path d="M258.481 231.843h-52.997a5.297 5.297 0 0 1-5.3-5.3v-58.297a5.297 5.297 0 0 1 5.3-5.3h52.998a5.297 5.297 0 0 1 5.3 5.3v58.297a5.297 5.297 0 0 1-5.301 5.3zm-47.698-10.599h42.398v-47.698h-42.398v47.698z"/><path d="M258.481 290.14h-52.997a5.297 5.297 0 0 1-5.3-5.3v-58.297a5.297 5.297 0 0 1 5.3-5.3h52.998a5.297 5.297 0 0 1 5.3 5.3v58.297a5.297 5.297 0 0 1-5.301 5.3zm-47.698-10.599h42.398v-47.698h-42.398v47.698zM502.27 115.248h-52.998a5.297 5.297 0 0 1-5.3-5.3V51.651a5.297 5.297 0 0 1 5.3-5.3h52.998a5.297 5.297 0 0 1 5.3 5.3v58.297a5.297 5.297 0 0 1-5.3 5.3zm-47.697-10.599h42.398V56.951h-42.398v47.698z"/><path d="M502.27 173.546h-52.998a5.297 5.297 0 0 1-5.3-5.3v-58.297a5.297 5.297 0 0 1 5.3-5.3h52.998a5.297 5.297 0 0 1 5.3 5.3v58.297a5.297 5.297 0 0 1-5.3 5.3zm-47.697-10.6h42.398v-47.698h-42.398v47.698z"/><path d="M502.27 231.843h-52.998a5.297 5.297 0 0 1-5.3-5.3v-58.297a5.297 5.297 0 0 1 5.3-5.3h52.998a5.297 5.297 0 0 1 5.3 5.3v58.297a5.297 5.297 0 0 1-5.3 5.3zm-47.697-10.599h42.398v-47.698h-42.398v47.698z"/><path d="M502.27 290.14h-52.998a5.297 5.297 0 0 1-5.3-5.3v-58.297a5.297 5.297 0 0 1 5.3-5.3h52.998a5.297 5.297 0 0 1 5.3 5.3v58.297a5.297 5.297 0 0 1-5.3 5.3zm-47.697-10.599h42.398v-47.698h-42.398v47.698z"/></g><g><path d="M376.871 353.882l-85.217-81.439a12.071 12.071 0 0 1 .259-17.222l85.216-78.656a11.88 11.88 0 0 1 20.043 8.737v160.096a11.88 11.88 0 0 1-20.301 8.484z" fill="#7facfa"/><path d="M49.348 156.808h102.571c14.839 0 26.868 12.03 26.868 26.868v155.891A28.437 28.437 0 0 1 150.354 368H48.305c-14.263 0-25.825-11.562-25.825-25.825V183.676c0-14.839 12.029-26.868 26.868-26.868z" fill="#fff"/><path d="M158.732 156.808h102.571c14.839 0 26.868 12.03 26.868 26.868v155.891c0 15.703-12.73 28.431-28.431 28.431H157.689c-14.263 0-25.825-11.562-25.825-25.825V183.676c0-14.839 12.029-26.868 26.868-26.868z" fill="#a4c2f7"/><path d="M69.785 156.808h171.08c14.839 0 26.868 12.03 26.868 26.868v155.891c0 15.703-12.73 28.431-28.431 28.431H68.742c-14.263 0-25.825-11.562-25.825-25.825V183.676a26.866 26.866 0 0 1 26.868-26.868z" fill="#e3e7f2"/><circle cx="100.825" cy="235.152" r="37.47" fill="#7facfa"/><g fill="#a4c2f7"><ellipse cx="90.606" cy="235.152" rx="27.251" ry="37.47"/><path d="M376.151 181.542a51.156 51.156 0 0 1-26.224 15.797 17.407 17.407 0 0 1-9.273 14.945 32.71 32.71 0 0 0-9.28 7.076 32.745 32.745 0 0 0-4.303 10.94 7.516 7.516 0 0 1-13.766 1.243c-7.543 8.793-15.235 17.514-23.211 25.833a47.632 47.632 0 0 0 5.01 12.661 6.45 6.45 0 0 1-.272 7.528c18.713 16.825 34.682 36.674 54.967 51.71a7.515 7.515 0 0 1 3.101 5.324c6.934 5.84 14.023 11.469 21.31 16.817.195.184.379.38.552.586a11.873 11.873 0 0 0 1.973-6.603V185.302a12.326 12.326 0 0 0-.584-3.76z"/></g><g fill="#652d90"><path d="M259.74 374.811H48.303c-18.017-.022-32.616-14.623-32.636-32.639V183.679c.02-18.594 15.087-33.662 33.681-33.684h211.956c18.594.021 33.661 15.09 33.681 33.684v155.885c-.023 19.456-15.789 35.223-35.245 35.247zM49.348 163.62c-11.072.015-20.042 8.987-20.055 20.058v158.493c.011 10.495 8.516 19.001 19.011 19.014H259.74c11.935-.014 21.606-9.687 21.618-21.622V183.679c-.013-11.072-8.984-20.044-20.055-20.058l-211.955-.001z"/><path d="M385.164 364.253a18.4 18.4 0 0 1-13.059-5.502l-85.158-81.386a18.878 18.878 0 0 1 .276-27.083l85.287-78.718a18.315 18.315 0 0 1 20.111-3.566 18.554 18.554 0 0 1 11.364 17.304v160.096c-.001 10.4-8.421 18.835-18.821 18.855zm.03-184.167a4.784 4.784 0 0 0-3.37 1.417l-85.29 78.725a5.158 5.158 0 0 0-1.55 3.653 5.214 5.214 0 0 0 1.507 3.766l85.088 81.312.133.127a4.837 4.837 0 0 0 5.468 1.124 5.071 5.071 0 0 0 3.18-4.81V185.302a5.078 5.078 0 0 0-3.113-4.783 5.332 5.332 0 0 0-2.053-.433zM104.224 483.812a6.814 6.814 0 0 1-6.068-9.899l55.395-109.001a6.813 6.813 0 1 1 12.148 6.174l-55.396 109.001a6.815 6.815 0 0 1-6.079 3.725z"/><path d="M213.239 483.812a6.812 6.812 0 0 1-6.121-3.806l-53.606-109.001a6.813 6.813 0 1 1 12.228-6.014l53.606 109.001a6.809 6.809 0 0 1-.328 6.605 6.804 6.804 0 0 1-5.779 3.215zM100.825 279.434c-24.456 0-44.282-19.825-44.282-44.282s19.825-44.282 44.282-44.282 44.282 19.825 44.282 44.282c-.029 24.445-19.838 44.254-44.282 44.282zm0-74.938c-16.931 0-30.657 13.725-30.657 30.657s13.725 30.657 30.657 30.657 30.657-13.725 30.657-30.657c-.019-16.924-13.733-30.639-30.657-30.657z"/><path d="M145.107 279.434a6.793 6.793 0 0 1-4.817-1.996l-34.063-34.063a6.813 6.813 0 0 1 9.633-9.633l34.063 34.063a6.813 6.813 0 0 1-4.816 11.629z"/></g></g></svg>