<?xml version="1.0" encoding="iso-8859-1"?>
<!-- Generator: Adobe Illustrator 21.1.0, SVG Export Plug-In . SVG Version: 6.00 Build 0)  -->
<svg version="1.1" id="Layer_1" xmlns="http://www.w3.org/2000/svg" xmlns:xlink="http://www.w3.org/1999/xlink" x="0px" y="0px"
	 viewBox="0 0 500 133.333" style="enable-background:new 0 0 500 133.333;" xml:space="preserve">
<g>
	<path d="M26.75,25.087v31.501h38.662c3.102,0,5.697,0.984,7.786,2.954c2.086,1.968,3.132,4.504,3.132,7.607
		c0,2.625-1.046,4.952-3.132,6.98c-2.09,2.031-4.684,3.043-7.786,3.043H26.75v41.704c0,3.104-1.105,5.7-3.311,7.787
		c-2.209,2.089-4.804,3.132-7.786,3.132c-3.342,0-6.057-1.012-8.144-3.043c-2.089-2.028-3.132-4.653-3.132-7.876V18.041
		c0-7.477,6.061-13.538,13.538-13.538h55.552c3.102,0,5.697,0.984,7.786,2.953c2.086,1.969,3.132,4.505,3.132,7.607
		c0,2.626-1.046,4.953-3.132,6.98c-2.09,2.031-4.684,3.043-7.786,3.043H26.75z"/>
	<path d="M215.496,109.286c0-2.935,1.466-5.418,4.402-7.45c1.579-1.015,3.216-1.524,4.909-1.524c2.37,0,4.627,1.075,6.772,3.217
		c3.386,3.5,6.912,6.094,10.581,7.787c3.666,1.693,8.097,2.539,13.29,2.539c8.803-0.337,13.204-3.665,13.204-9.988
		c0-3.272-1.496-5.757-4.485-7.45c-2.992-1.693-7.648-3.386-13.967-5.079c-6.547-1.804-11.88-3.611-15.999-5.418
		c-4.121-1.804-7.676-4.542-10.665-8.21c-2.992-3.667-4.486-8.605-4.486-14.813c0-5.418,1.55-10.128,4.656-14.136
		c3.102-4.006,7.166-7.111,12.189-9.311c5.021-2.202,10.354-3.302,15.999-3.302c5.755,0,11.512,1.073,17.269,3.216
		c5.755,2.146,10.269,5.307,13.544,9.482c1.465,1.807,2.201,3.837,2.201,6.094c0,2.597-1.075,4.74-3.217,6.433
		c-1.582,1.243-3.386,1.863-5.418,1.863c-2.483,0-4.515-0.789-6.094-2.371c-2.032-2.482-4.656-4.457-7.873-5.925
		c-3.216-1.465-6.855-2.201-10.918-2.201c-8.579,0-12.867,3.105-12.867,9.311c0,2.483,0.788,4.487,2.37,6.01
		c1.579,1.524,3.582,2.71,6.01,3.556c2.426,0.846,5.841,1.891,10.242,3.131c6.096,1.693,11.175,3.444,15.237,5.248
		c4.064,1.807,7.504,4.571,10.328,8.296c2.819,3.725,4.232,8.633,4.232,14.729c0,5.53-1.638,10.356-4.91,14.475
		c-3.275,4.122-7.478,7.253-12.613,9.396c-5.137,2.143-10.411,3.217-15.829,3.217c-7.449,0-14.39-1.243-20.823-3.725
		c-6.434-2.482-11.682-6.489-15.745-12.019C216.003,113.009,215.496,111.316,215.496,109.286z"/>
	<path d="M393.067,118.258c0,2.822-1.101,5.193-3.302,7.111c-2.201,1.919-4.545,2.877-7.026,2.877c-2.936,0-5.418-1.126-7.448-3.386
		l-30.475-32.166l-8.295,7.618v17.776c0,2.936-0.961,5.391-2.878,7.365c-1.921,1.976-4.346,2.963-7.279,2.963
		c-2.936,0-5.362-0.987-7.279-2.963c-1.921-1.974-2.878-4.429-2.878-7.365V13.463c0-2.934,0.957-5.389,2.878-7.365
		c1.918-1.973,4.343-2.963,7.279-2.963c2.933,0,5.358,0.989,7.279,2.963c1.918,1.976,2.878,4.431,2.878,7.365v62.639l36.23-35.045
		c2.143-2.143,4.626-3.216,7.448-3.216c2.482,0,4.712,1.045,6.688,3.131c1.974,2.09,2.963,4.206,2.963,6.349
		c0,2.71-1.354,5.249-4.064,7.618l-25.563,23.533l29.627,32.166C391.992,112.898,393.067,115.438,393.067,118.258z"/>
	<path d="M496.485,118.258c0,2.822-1.101,5.193-3.302,7.111c-2.201,1.919-4.545,2.877-7.026,2.877c-2.936,0-5.418-1.126-7.448-3.386
		l-30.473-32.166l-8.296,7.618v17.776c0,2.936-0.961,5.391-2.878,7.365c-1.919,1.976-4.347,2.963-7.279,2.963
		c-2.936,0-5.362-0.987-7.279-2.963c-1.921-1.974-2.878-4.429-2.878-7.365V13.463c0-2.934,0.957-5.389,2.878-7.365
		c1.918-1.973,4.343-2.963,7.279-2.963c2.933,0,5.36,0.989,7.279,2.963c1.918,1.976,2.878,4.431,2.878,7.365v62.639l36.23-35.045
		c2.143-2.143,4.626-3.216,7.448-3.216c2.482,0,4.712,1.045,6.688,3.131c1.974,2.09,2.963,4.206,2.963,6.349
		c0,2.71-1.354,5.249-4.064,7.618l-25.563,23.533l29.627,32.166C495.41,112.898,496.485,115.438,496.485,118.258z"/>
	<g>
		<g>
			<path style="fill:#FFFFFF;" d="M190.658,80.383c-0.025-0.146-0.043-0.293-0.076-0.436c-0.014-0.066-0.02-0.135-0.035-0.2h-0.029
				c-0.916-3.536-4.183-6.164-8.106-6.164c-3.923,0-7.19,2.628-8.106,6.164h-0.029c-0.022,0.075-0.025,0.152-0.044,0.228
				c-0.021,0.093-0.036,0.187-0.054,0.28c-0.086,0.445-0.133,0.895-0.14,1.352c-0.001,0.042-0.013,0.081-0.013,0.124
				c0,0.019,0.006,0.037,0.006,0.056c-0.001,0.792,0.061,1.596,0.061,2.405c0,15.953-11.772,28.886-26.294,28.886
				c-14.522,0-25.553-11.692-26.292-28.621c-0.036-0.823,0.01-1.728-0.006-2.61c0-0.013,0.004-0.024,0.004-0.037
				c0-0.034-0.01-0.066-0.01-0.1c-0.012-0.471-0.061-0.923-0.141-1.357c-0.02-0.11-0.04-0.219-0.065-0.327
				c-0.023-0.09-0.027-0.19-0.055-0.277l-0.034,0c-0.944-3.495-4.188-6.085-8.081-6.085c-3.911,0-7.169,2.613-8.096,6.133l-0.031,0
				c-0.351,1.122-0.311,3.346-0.311,5.083c0,24.807,19.305,44.917,43.118,44.917s43.118-20.11,43.118-44.917
				C190.918,83.366,190.903,81.815,190.658,80.383z"/>
			<path d="M121.615,52.292c0,4.961-4.022,1.53-8.983,1.53s-8.983,3.431-8.983-1.53s4.022-8.983,8.983-8.983
				S121.615,47.331,121.615,52.292z"/>
			<path d="M191.95,52.292c0,4.961-4.022,1.53-8.983,1.53s-8.983,3.431-8.983-1.53s4.022-8.983,8.983-8.983
				S191.95,47.331,191.95,52.292z"/>
		</g>
		<ellipse cx="112.611" cy="52.246" rx="9.004" ry="9.019"/>
		<ellipse cx="182.967" cy="52.246" rx="9.004" ry="9.019"/>
	</g>
</g>
</svg>
