<?xml version="1.0" encoding="utf-8"?>
<!-- Generator: Adobe Illustrator 21.1.0, SVG Export Plug-In . SVG Version: 6.00 Build 0)  -->
<svg version="1.1" id="Layer_1" xmlns="http://www.w3.org/2000/svg" xmlns:xlink="http://www.w3.org/1999/xlink" x="0px" y="0px"
	 viewBox="0 0 342.8 85.4" style="enable-background:new 0 0 342.8 85.4;" xml:space="preserve">
<style type="text/css">
	.st0{fill:#231F20;}
	.st1{fill:#FFFFFF;}
	.st2{fill:none;stroke:#FFFFFF;stroke-width:2.86;stroke-linecap:round;stroke-miterlimit:10;}
</style>
<title>white-fuskk</title>
<g>
	<path class="st0" d="M269.3,14.5c-1.4-2.1-3.8-3.5-7.1-4c-7.8-1.3-13.1,2.1-14.9,9.6c-1.8,7.2-5.7,11.5-12.3,13.6
		c0.1-1.2,0.2-2.3,0.3-3.5c0.3-2.5,0.4-4.9,0.4-7.4c-0.2-5.4-1.6-12.5-12-12.1c-8.3,0.3-11.9,4.1-11.9,12.8v39.9l0.3,3.8
		c0.2,2.8,0.5,5.8,0.9,8.8c0.8,6.1,5.2,9.4,11.6,8.7c6.9-0.8,10.4-4.3,10.5-10.3c0-4.2,0.2-8,0.6-11.4c0.1-0.6,0.1-1.2,0.3-1.8
		c0.6,0.3,1.2,0.5,1.8,0.8c5.5,2.9,7.9,8.7,10.4,14.8c2.2,5.4,5.9,8.3,10.6,8.3c1.7,0,3.4-0.4,5-1c2.8-0.9,5.1-2.9,6.2-5.6
		c0.8-1.9,1.2-5.2-1-9.7c-3.4-6.9-7.3-13.5-11.8-19.8c-0.4-0.5-0.6-0.9-0.8-1.2l0.4-0.3c8-6.7,11.3-16.1,13.5-25.3
		C271,19.3,270.6,16.6,269.3,14.5"/>
	<path class="st0" d="M299.5,17.5c0,3.2-0.2,6.2-0.2,8.4c0,6.7,11.3,1.6,13.8-1c4.8-4.9,8-11.4,11.1-17.6c2-3.8,3.6-6.9,8.6-7.2
		c8.5-0.4,11.3,3,8.9,11.2c-3,10.1-6.7,19.8-15.4,26.6c-3.6,2.9-1.8,5.3,0.3,8.4c5.3,8,10.2,16.4,14.7,24.9c2.5,4.7,2,9.3-4.1,11.5
		c-5.8,2-9.8,0-12.5-6c-4.7-10.4-8.3-18.8-19.9-22.5c-8.3-2.6-1.9,28.7-16.3,28.9c-7.5,0.1-8.3-5.5-8.4-10.7
		c-0.4-16.9-0.3-33.7-0.4-50.6c0-3.3,0-6.7-0.1-10c-0.1-9,1.6-11.1,9.7-11.3C298.3,0.3,299.5,9.4,299.5,17.5"/>
	<path class="st0" d="M170.3,0.1c7.6,0.4,15.1,2.1,22.2,4.8c4.1,1.6,6.7,5,4.4,9.7c-6.5,13.3-24.6-1.7-34.7,5.6
		c-0.6,0.4-1.1,0.9-1.3,1.6c-0.1,0.7,0.1,1.4,0.5,2c4.9,8.6,15.3,11.1,24.2,13.9c10.4,3.3,15.6,11,16.6,21c1,9.4-4.6,15.9-12.1,21.2
		c-13.3,9.5-36.8,4.9-47.1-2.9c-4-3-3.3-6.3-1.2-10c2.6-4.5,6-6.5,11.2-4.4s23.6,9.5,27.3,0.6c3.4-8.1-16.1-14-21.5-16.4
		c-13.7-6-20.3-15.7-18-26.3C144.4,4.2,156.9-0.5,170.3,0.1"/>
	<path class="st0" d="M0.1,42.4C0.1,31.2,0.3,20.1,0,8.9c-0.1-6.4,2.1-8.7,8.8-8.5c13.5,0.5,27.1,0,40.6,0.3c7.7,0.1,9.8,2.8,9.3,10
		c-0.3,4.5-2.2,7-7,7.1c-8.5,0.2-17.1,0.9-25.6,0.9c-6.7,0.1-7.7,3.9-7.6,9.4c0.2,6.2,4.2,6,8.4,5.8c4-0.2,8.1-0.5,12.1-0.5
		c5.7-0.1,9.8,1.8,9.6,8.5c-0.2,6.3-4.2,7.8-9.6,7.7c-4.5-0.1-9,0.1-13.5,0.3c-4.9,0.2-7.2,2.6-7,7.7c0.2,5.7,0.2,11.4-0.2,17.1
		c-0.5,7.6-2.5,8.7-11.5,8.6c-6.7,0-6.9-3.9-6.8-8.9C0.2,63.8,0.1,53.1,0.1,42.4L0.1,42.4"/>
	<path class="st1" d="M48.3,7.7H9.7C8.9,7.7,8.3,7,8.3,6.2c0-0.8,0.6-1.4,1.4-1.4c0,0,0,0,0,0h38.5c0.8,0,1.4,0.6,1.4,1.4
		S49,7.7,48.3,7.7C48.3,7.7,48.3,7.7,48.3,7.7"/>
	<path class="st1" d="M146.7,26.9h-0.1c-0.8-0.1-1.4-0.8-1.3-1.5c1.9-20.7,23.7-20.5,24-20.6c0.8,0,1.4,0.6,1.4,1.4
		c0,0.8-0.6,1.4-1.4,1.4c-0.8,0-19.4-0.1-21,18c-0.1,0.7-0.7,1.3-1.4,1.3"/>
	<path class="st1" d="M219.8,43.4h-2.9V25.1c0-3.5,0.8-6,2.5-7.5c1-0.9,2.2-1.4,3.6-1.4c0.8,0.1,1.4,0.7,1.3,1.5
		c0,0.8-0.7,1.4-1.5,1.3c0,0,0,0,0,0l0,0c-0.6,0-1.1,0.3-1.5,0.7c-0.7,0.7-1.5,2.2-1.5,5.4L219.8,43.4z"/>
	<path class="st1" d="M285.2,38.6L285.2,38.6c-0.8,0-1.5-0.7-1.4-1.5c0,0,0,0,0,0c0-0.1,0.5-14.4,0.3-22.6c-0.1-2.2-0.3-7.6,1.7-9.3
		c0.6-0.5,1.5-0.4,2,0.2c0.4,0.6,0.4,1.4-0.1,1.9c-0.6,0.6-0.9,3.9-0.7,7.1c0.3,8.4-0.3,22.7-0.3,22.8C286.6,38,286,38.6,285.2,38.6
		"/>
	<path class="st1" d="M81.2,34.1c0.2,1.5-0.1,3.1-0.8,4.4c-0.9,1.4-2.3,2.4-3.8,2.8c-3.7,1.3-8.1,1.3-11.4-1.1
		c-3.7-2.7-2.8-7.5-2.8-11.5c0-6.5,5.1-6.6,9.5-6.9c3.5-0.4,6.9,1.8,8,5.2c0.6,1.7,0.9,3.4,1,5.1C81.1,32.8,81.1,33.4,81.2,34.1"/>
	<path class="st1" d="M129.9,37.7c-0.1,0.3-0.2,0.5-0.4,0.8c-3,5.2-11.9,4.5-16,1.4c-2.7-2-2.1-5.6-2-8.6s0.6-6.4,3.1-8.5
		c1.9-1.6,4.7-1.4,7-1.2c2.5,0.3,5.6,0.5,7.3,2.5c0.9,1.3,1.3,2.8,1.2,4.3c0,1.4,0,2.9,0.1,4.3C130.2,34.4,130.5,36.1,129.9,37.7"/>
	<path class="st1" d="M129.7,52.3c0.2,0.5,0.3,1.1,0.3,1.6c0,2.3-1,4.8-1.7,7.1c-0.7,2.3-1.5,4.5-2.5,6.7c-1.8,4.4-4.7,8.3-8.5,11.2
		c-8.6,6.5-19.9,7.9-30.1,5c-6.6-1.9-12.5-5.7-16.9-11c-4.6-5.5-6.4-11.9-7.3-18.8c0-0.3-0.1-0.7-0.1-1.1c-0.2-1.2,0.1-2.4,0.7-3.3
		c0.6-0.7,1.4-1.2,2.3-1.5c3.4-1.1,6.8-1.8,10.3-0.5c3.1,1.1,4.3,3.3,4.7,6.4c1.1,7.8,8,14.8,16.2,14c3.9-0.4,7.5-2.2,10-5.1
		c2.5-3,4-6.6,4.5-10.4c0.5-3.4,3.4-4.7,6.6-5.3c2.2-0.5,4.4-0.4,6.5,0.3C126.8,48.5,129,50.1,129.7,52.3"/>
	<path class="st2" d="M118.3,26.7c0,0,5.3-2,7.8,2.4 M68,26.7c0,0,5.3-2,7.8,2.4"/>
</g>
</svg>
